<?xml version="1.0" encoding="UTF-8" standalone="no"?>
<!-- Created with Inkscape (http://www.inkscape.org/) -->

<svg
   xmlns:dc="http://purl.org/dc/elements/1.1/"
   xmlns:cc="http://creativecommons.org/ns#"
   xmlns:rdf="http://www.w3.org/1999/02/22-rdf-syntax-ns#"
   xmlns:svg="http://www.w3.org/2000/svg"
   xmlns="http://www.w3.org/2000/svg"
   xmlns:sodipodi="http://sodipodi.sourceforge.net/DTD/sodipodi-0.dtd"
   xmlns:inkscape="http://www.inkscape.org/namespaces/inkscape"
   width="177.64212"
   height="88.883698"
   id="svg5666"
   version="1.1"
   inkscape:version="0.48.4 r9939"
   sodipodi:docname="basepair.svg">
  <defs
     id="defs5668">
    <clipPath
       clipPathUnits="userSpaceOnUse"
       id="clipPath3700">
      <path
         inkscape:connector-curvature="0"
         d="m 138.891,582.54 -2.927,1.357 -2.679,-5.837 3.482,3.695 -0.571,-5.034 2.695,5.819 m -36.381,158.472 0,-188.629 144,0 0,188.629 -144,0"
         clip-rule="evenodd"
         id="path3702" />
    </clipPath>
    <clipPath
       clipPathUnits="userSpaceOnUse"
       id="clipPath3686">
      <path
         inkscape:connector-curvature="0"
         d="m 224.042,598.946 -2.447,-2.089 4.178,-4.856 -1.91,4.696 4.355,-2.607 -4.176,4.856 m -121.532,142.066 0,-188.629 144,0 0,188.629 -144,0"
         clip-rule="evenodd"
         id="path3688" />
    </clipPath>
    <clipPath
       clipPathUnits="userSpaceOnUse"
       id="clipPath3258">
      <path
         inkscape:connector-curvature="0"
         d="m 239.519,577.363 -0.375,3.268 -6.177,-0.732 4.856,-1.09 -4.463,-2.178 6.159,0.732 m -137.009,163.649 0,-188.629 144,0 0,188.629 -144,0"
         clip-rule="evenodd"
         id="path3260" />
    </clipPath>
    <clipPath
       clipPathUnits="userSpaceOnUse"
       id="clipPath3202">
      <path
         inkscape:connector-curvature="0"
         d="m 222.274,596.482 -0.572,3.249 -6.123,-1.088 4.91,-0.804 -4.338,-2.429 6.123,1.072 m -119.764,144.53 0,-188.629 144,0 0,188.629 -144,0"
         clip-rule="evenodd"
         id="path3204" />
    </clipPath>
    <clipPath
       clipPathUnits="userSpaceOnUse"
       id="clipPath3184">
      <path
         inkscape:connector-curvature="0"
         d="m 102.51,741.012 0,-188.629 144,0 0,188.629 -144,0"
         id="path3186" />
    </clipPath>
    <clipPath
       clipPathUnits="userSpaceOnUse"
       id="clipPath3108">
      <path
         inkscape:connector-curvature="0"
         d="m 213.581,608.907 -2.232,2.088 -3.552,-3.802 4.194,2.232 -1.98,-4.32 3.57,3.802 m -17.548,-35.542 3.053,-0.053 0.089,5.194 -1.607,-4.48 -1.445,4.533 -0.09,-5.194 m -93.523,167.647 0,-188.629 144,0 0,188.629 -144,0"
         clip-rule="evenodd"
         id="path3110" />
    </clipPath>
    <clipPath
       clipPathUnits="userSpaceOnUse"
       id="clipPath3090">
      <path
         inkscape:connector-curvature="0"
         d="m 142.729,596.572 -0.643,-2.982 5.088,-1.089 -4.07,2.427 4.713,0.554 -5.088,1.09 m 18.494,-27.224 3.052,-0.053 0.108,5.195 -1.607,-4.481 -1.428,4.533 -0.125,-5.194 m -58.713,171.664 0,-188.629 144,0 0,188.629 -144,0"
         clip-rule="evenodd"
         id="path3092" />
    </clipPath>
  </defs>
  <sodipodi:namedview
     id="base"
     pagecolor="#ffffff"
     bordercolor="#666666"
     borderopacity="1.0"
     inkscape:pageopacity="0.0"
     inkscape:pageshadow="2"
     inkscape:zoom="2.8"
     inkscape:cx="93.567139"
     inkscape:cy="-22.998688"
     inkscape:document-units="px"
     inkscape:current-layer="layer1"
     showgrid="false"
     inkscape:window-width="1920"
     inkscape:window-height="1020"
     inkscape:window-x="-2"
     inkscape:window-y="-3"
     inkscape:window-maximized="1"
     fit-margin-top="0"
     fit-margin-left="0"
     fit-margin-right="0"
     fit-margin-bottom="0" />
  <metadata
     id="metadata5671">
    <rdf:RDF>
      <cc:Work
         rdf:about="">
        <dc:format>image/svg+xml</dc:format>
        <dc:type
           rdf:resource="http://purl.org/dc/dcmitype/StillImage" />
        <dc:title />
      </cc:Work>
    </rdf:RDF>
  </metadata>
  <g
     inkscape:label="Layer 1"
     inkscape:groupmode="layer"
     id="layer1"
     transform="translate(-136.89323,-412.03865)">
    <path
       inkscape:connector-curvature="0"
       id="path3036"
       style="fill:#8076c2;fill-opacity:1;fill-rule:evenodd;stroke:none"
       d="m 186.44194,462.6749 c 0,4.43375 -3.6,8.03375 -8.03375,8.03375 -4.43375,0 -8.0325,-3.6 -8.0325,-8.03375 0,-4.43375 3.59875,-8.03375 8.0325,-8.03375 4.43375,0 8.03375,3.6 8.03375,8.03375" />
    <path
       inkscape:connector-curvature="0"
       id="path3038"
       style="fill:#2e3796;fill-opacity:1;fill-rule:nonzero;stroke:none"
       d="m 186.44194,462.6749 -0.0837,0 c 0,2.19375 -0.89,4.18125 -2.33,5.62 -1.43875,1.44 -3.425,2.33 -5.62,2.33 -2.19375,0 -4.18125,-0.89 -5.62,-2.33 -1.43875,-1.43875 -2.32875,-3.42625 -2.32875,-5.62 0,-2.19375 0.89,-4.18 2.32875,-5.62 1.43875,-1.43875 3.42625,-2.33 5.62,-2.33 2.195,0 4.18125,0.89125 5.62,2.33 1.44,1.44 2.33,3.42625 2.33,5.62 l 0.1675,0 c -0.001,-4.48 -3.6375,-8.11625 -8.1175,-8.11625 -4.48,0 -8.11625,3.63625 -8.11625,8.11625 0,4.48 3.63625,8.1175 8.11625,8.1175 4.48,0 8.11625,-3.6375 8.1175,-8.1175 l -0.0838,0" />
    <path
       inkscape:connector-curvature="0"
       id="path3064"
       style="fill:#8076c2;fill-opacity:1;fill-rule:evenodd;stroke:none"
       d="m 291.58568,444.28865 c 0,4.43375 -3.59875,8.03375 -8.03375,8.03375 -4.43375,0 -8.03375,-3.6 -8.03375,-8.03375 0,-4.435 3.6,-8.0325 8.03375,-8.0325 4.435,0 8.03375,3.5975 8.03375,8.0325" />
    <path
       inkscape:connector-curvature="0"
       id="path3066"
       style="fill:#2e3796;fill-opacity:1;fill-rule:nonzero;stroke:none"
       d="m 291.58568,444.28865 -0.0838,0 c 0,2.19375 -0.89,4.18125 -2.32875,5.62 -1.44,1.44 -3.42625,2.33 -5.62125,2.33 -2.19375,0 -4.18125,-0.89 -5.62,-2.33 -1.43875,-1.43875 -2.33,-3.42625 -2.33,-5.62 0,-2.19375 0.89125,-4.18125 2.33,-5.62 1.43875,-1.43875 3.42625,-2.33 5.62,-2.33 2.195,0 4.18125,0.89125 5.62125,2.33 1.43875,1.43875 2.32875,3.42625 2.32875,5.62 l 0.1675,0 c 0,-4.48125 -3.63625,-8.11625 -8.1175,-8.11625 -4.48,0 -8.11625,3.635 -8.1175,8.11625 0.001,4.48 3.6375,8.1175 8.1175,8.1175 4.48125,0 8.1175,-3.6375 8.1175,-8.1175 l -0.0837,0" />
    <text
       style="font-size:15px"
       id="text3068"
       x="291.94568"
       y="439.26224">
      <tspan
         id="tspan3070"
         sodipodi:role="line"
         y="439.26224"
         x="291.94568 297.97052 303.32056 308.00784"
         style="font-size:12.0496254px;font-variant:normal;font-weight:normal;writing-mode:lr-tb;fill:#100f0d;fill-opacity:1;fill-rule:nonzero;stroke:none;font-family:Times New Roman;-inkscape-font-specification:TimesNewRomanPS">base</tspan>
    </text>
    <text
       style="font-size:15px"
       id="text3072"
       x="204.24919"
       y="445.61731">
      <tspan
         id="tspan3074"
         sodipodi:role="line"
         y="445.61731"
         x="204.24919 206.47836 209.8255"
         style="font-size:6.69425011px;font-variant:normal;font-weight:normal;writing-mode:lr-tb;fill:#100f0d;fill-opacity:1;fill-rule:nonzero;stroke:none;font-family:Times New Roman;-inkscape-font-specification:TimesNewRomanPS">(1)</tspan>
      <tspan
         id="tspan3076"
         sodipodi:role="line"
         y="435.57587"
         x="252.4478 254.67696 258.02408"
         style="font-size:6.69425011px;font-variant:normal;font-weight:normal;writing-mode:lr-tb;fill:#100f0d;fill-opacity:1;fill-rule:nonzero;stroke:none;font-family:Times New Roman;-inkscape-font-specification:TimesNewRomanPS">(2)</tspan>
    </text>
    <g
       transform="matrix(1.25,0,0,-1.25,6.490684,1191.4011)"
       id="g3086">
      <g
         clip-path="url(#clipPath3090)"
         id="g3088">
        <path
           inkscape:connector-curvature="0"
           id="path3094"
           style="fill:#100f0d;fill-opacity:1;fill-rule:nonzero;stroke:none"
           d="m 142.646,594.752 c 11.388,-1.198 20.034,-10.8 20.034,-22.25 0,-0.963 -0.063,-1.925 -0.187,-2.881 l 0.532,-0.069 c 0.126,0.979 0.19,1.964 0.19,2.95 0,11.724 -8.853,21.556 -20.512,22.782 l -0.057,-0.532" />
      </g>
    </g>
    <path
       inkscape:connector-curvature="0"
       id="path3096"
       style="fill:#231f20;fill-opacity:1;fill-rule:evenodd;stroke:none"
       d="m 208.17569,473.22365 1.785,5.66625 2.00875,-5.60125 -3.79375,-0.065" />
    <path
       inkscape:connector-curvature="0"
       id="path3098"
       style="fill:#100f0d;fill-opacity:1;fill-rule:nonzero;stroke:none"
       d="m 208.17569,473.22365 -0.16,0.05 1.935,6.14 2.255,-6.2875 -4.26,-0.0738 0.07,0.22125 0.16,-0.05 -0.002,0.1675 3.56,0.0613 -1.7625,4.9125 -1.635,-5.1925 -0.16,0.0513 -0.002,0.1675 0.002,-0.1675" />
    <path
       inkscape:connector-curvature="0"
       id="path3100"
       style="fill:#231f20;fill-opacity:1;fill-rule:evenodd;stroke:none"
       d="m 191.26194,447.04865 -5.89125,0.6925 5.0875,3.03375 0.80375,-3.72625" />
    <path
       inkscape:connector-curvature="0"
       id="path3102"
       style="fill:#100f0d;fill-opacity:1;fill-rule:nonzero;stroke:none"
       d="m 191.26194,447.04865 -0.02,-0.16625 -6.38,0.75 5.71125,3.405 0.90125,-4.1825 -0.2325,0.0275 0.02,0.16625 -0.16375,-0.035 -0.75375,3.4975 -4.465,-2.66125 5.40125,-0.635 -0.0187,-0.16625 -0.16375,-0.035 0.16375,0.035" />
    <g
       transform="matrix(1.25,0,0,-1.25,6.490684,1191.4011)"
       id="g3104">
      <g
         clip-path="url(#clipPath3108)"
         id="g3106">
        <path
           inkscape:connector-curvature="0"
           id="path3112"
           style="fill:#100f0d;fill-opacity:1;fill-rule:nonzero;stroke:none"
           d="m 212.138,609.964 c -9.493,-9.103 -14.861,-21.688 -14.861,-34.842 0,-0.505 0.008,-1.01 0.024,-1.515 l 0.536,0.017 c -0.017,0.499 -0.025,0.998 -0.025,1.498 0,13.008 5.309,25.453 14.696,34.456 l -0.37,0.386" />
      </g>
    </g>
    <path
       inkscape:connector-curvature="0"
       id="path3114"
       style="fill:#231f20;fill-opacity:1;fill-rule:evenodd;stroke:none"
       d="m 251.64443,468.2024 1.80625,5.66625 2.00875,-5.6 -3.815,-0.0662" />
    <path
       inkscape:connector-curvature="0"
       id="path3116"
       style="fill:#100f0d;fill-opacity:1;fill-rule:nonzero;stroke:none"
       d="m 251.64443,468.2024 -0.16,0.0512 1.9575,6.1375 2.25375,-6.28625 -4.28125,-0.0737 0.07,0.2225 0.16,-0.0512 -0.002,0.1675 3.58125,0.0613 -1.7625,4.91625 -1.6575,-5.19625 -0.15875,0.0513 -0.002,0.1675 0.002,-0.1675" />
    <path
       inkscape:connector-curvature="0"
       id="path3118"
       style="fill:#231f20;fill-opacity:1;fill-rule:evenodd;stroke:none"
       d="m 269.00318,435.0199 2.47625,-5.4 -5.2425,2.79 2.76625,2.61" />
    <path
       inkscape:connector-curvature="0"
       id="path3120"
       style="fill:#100f0d;fill-opacity:1;fill-rule:nonzero;stroke:none"
       d="m 269.00318,435.0199 0.1525,0.07 2.6825,-5.85 -5.88625,3.1325 3.10625,2.93 0.0975,-0.2125 -0.1525,-0.07 0.115,-0.12125 -2.5975,-2.45 4.6,-2.44875 -2.26875,4.95 0.15125,0.07 0.115,-0.12125 -0.115,0.12125" />
    <path
       inkscape:connector-curvature="0"
       id="path3122"
       style="fill:#a6a6a5;fill-opacity:1;fill-rule:evenodd;stroke:none"
       d="m 176.08819,484.0974 c 0,4.43375 -3.59875,8.0325 -8.03375,8.0325 -4.43375,0 -8.0325,-3.59875 -8.0325,-8.0325 0,-4.435 3.59875,-8.03375 8.0325,-8.03375 4.435,0 8.03375,3.59875 8.03375,8.03375" />
    <path
       inkscape:connector-curvature="0"
       id="path3124"
       style="fill:#231f20;fill-opacity:1;fill-rule:nonzero;stroke:none"
       d="m 176.08819,484.0974 -0.0838,0 c 0,2.19375 -0.89125,4.18 -2.33,5.62 -1.43875,1.43875 -3.425,2.32875 -5.62,2.32875 -2.19375,0 -4.18125,-0.89 -5.62,-2.32875 -1.43875,-1.44 -2.33,-3.42625 -2.33,-5.62 0,-2.195 0.89125,-4.18125 2.33,-5.62125 1.43875,-1.43875 3.42625,-2.32875 5.62,-2.32875 2.195,0 4.18125,0.89 5.62,2.32875 1.43875,1.44 2.33,3.42625 2.33,5.62125 l 0.16625,0 c 0,-4.48125 -3.635,-8.1175 -8.11625,-8.1175 -4.48,0 -8.11625,3.63625 -8.11625,8.1175 0,4.48 3.63625,8.11625 8.11625,8.11625 4.48125,0 8.11625,-3.63625 8.11625,-8.11625 l -0.0825,0" />
    <path
       inkscape:connector-curvature="0"
       id="path3126"
       style="fill:#3741a0;fill-opacity:1;fill-rule:evenodd;stroke:none"
       d="m 285.22568,444.28865 c 0,0.92375 -0.75,1.6725 -1.67375,1.6725 -0.92375,0 -1.6725,-0.74875 -1.6725,-1.6725 0,-0.92375 0.74875,-1.675 1.6725,-1.675 0.92375,0 1.67375,0.75125 1.67375,1.675" />
    <path
       inkscape:connector-curvature="0"
       id="path3128"
       style="fill:#3741a0;fill-opacity:1;fill-rule:nonzero;stroke:none"
       d="m 285.22568,444.28865 -0.0838,0 c -0.001,0.87625 -0.7125,1.5875 -1.59,1.58875 -0.8775,-0.001 -1.5875,-0.71125 -1.58875,-1.58875 0.001,-0.8775 0.71125,-1.58875 1.58875,-1.59125 0.8775,0.002 1.58875,0.71375 1.59,1.59125 l 0.1675,0 c 0,-0.97 -0.7875,-1.7575 -1.7575,-1.75875 -0.97,10e-4 -1.75625,0.78875 -1.75625,1.75875 0,0.97 0.78625,1.75625 1.75625,1.75625 0.97,0 1.7575,-0.78625 1.7575,-1.75625 l -0.0838,0" />
    <path
       inkscape:connector-curvature="0"
       id="path3130"
       style="fill:#231f20;fill-opacity:1;fill-rule:evenodd;stroke:none"
       d="m 169.77319,484.4549 c 0,0.9225 -0.75,1.67375 -1.67375,1.67375 -0.92375,0 -1.67375,-0.75125 -1.67375,-1.67375 0,-0.925 0.75,-1.67375 1.67375,-1.67375 0.92375,0 1.67375,0.74875 1.67375,1.67375" />
    <path
       inkscape:connector-curvature="0"
       id="path3132"
       style="fill:#100f0d;fill-opacity:1;fill-rule:nonzero;stroke:none"
       d="m 169.77319,484.4549 -0.0838,0 c -0.001,0.87625 -0.71375,1.58875 -1.59,1.59 -0.8775,-10e-4 -1.58875,-0.71375 -1.59,-1.59 0.001,-0.87875 0.7125,-1.58875 1.59,-1.59 0.8775,0.001 1.58875,0.71125 1.59,1.59 l 0.1675,0 c 0,-0.97125 -0.7875,-1.7575 -1.7575,-1.7575 -0.97,0 -1.7575,0.78625 -1.7575,1.7575 0,0.96875 0.7875,1.7575 1.7575,1.7575 0.97,0 1.7575,-0.78875 1.7575,-1.7575 l -0.0838,0" />
    <path
       inkscape:connector-curvature="0"
       id="path3134"
       style="fill:#231f20;fill-opacity:1;fill-rule:evenodd;stroke:none"
       d="m 307.00443,467.71865 c 0,0.92375 -0.75,1.6725 -1.67375,1.6725 -0.92375,0 -1.67375,-0.74875 -1.67375,-1.6725 0,-0.925 0.75,-1.67375 1.67375,-1.67375 0.92375,0 1.67375,0.74875 1.67375,1.67375" />
    <path
       inkscape:connector-curvature="0"
       id="path3136"
       style="fill:#100f0d;fill-opacity:1;fill-rule:nonzero;stroke:none"
       d="m 307.00443,467.71865 -0.0838,0 c -0.001,0.8775 -0.7125,1.5875 -1.59,1.58875 -0.8775,-10e-4 -1.58875,-0.71125 -1.59,-1.58875 10e-4,-0.87875 0.7125,-1.58875 1.59,-1.59 0.8775,0.001 1.58875,0.71125 1.59,1.59 l 0.1675,0 c 0,-0.97125 -0.7875,-1.7575 -1.7575,-1.7575 -0.97,0 -1.7575,0.78625 -1.7575,1.7575 0,0.97 0.7875,1.75625 1.7575,1.75625 0.97,0 1.7575,-0.78625 1.7575,-1.75625 l -0.0838,0" />
    <path
       inkscape:connector-curvature="0"
       id="path3138"
       style="fill:#a6a6a5;fill-opacity:1;fill-rule:evenodd;stroke:none"
       d="m 313.63193,467.67365 c 0,4.43375 -3.59875,8.0325 -8.03375,8.0325 -4.43375,0 -8.03375,-3.59875 -8.03375,-8.0325 0,-4.435 3.6,-8.0325 8.03375,-8.0325 4.435,0 8.03375,3.5975 8.03375,8.0325" />
    <path
       inkscape:connector-curvature="0"
       id="path3140"
       style="fill:#231f20;fill-opacity:1;fill-rule:nonzero;stroke:none"
       d="m 313.63193,467.67365 -0.0838,0 c 0,2.19375 -0.89,4.18125 -2.33,5.62 -1.43875,1.43875 -3.425,2.32875 -5.62,2.32875 -2.19375,0 -4.18125,-0.89 -5.62,-2.32875 -1.44,-1.43875 -2.33,-3.42625 -2.33,-5.62 0,-2.19375 0.89,-4.18125 2.33,-5.62 1.43875,-1.43875 3.42625,-2.33 5.62,-2.33 2.195,0 4.18125,0.89125 5.62,2.33 1.44,1.43875 2.33,3.42625 2.33,5.62 l 0.1675,0 c 0,-4.48125 -3.63625,-8.11625 -8.1175,-8.11625 -4.48,0 -8.1175,3.635 -8.1175,8.11625 0,4.48 3.6375,8.11625 8.1175,8.11625 4.48125,0 8.1175,-3.63625 8.1175,-8.11625 l -0.0838,0" />
    <path
       inkscape:connector-curvature="0"
       id="path3142"
       style="fill:#231f20;fill-opacity:1;fill-rule:evenodd;stroke:none"
       d="m 307.00443,467.71865 c 0,0.92375 -0.75,1.6725 -1.67375,1.6725 -0.92375,0 -1.67375,-0.74875 -1.67375,-1.6725 0,-0.925 0.75,-1.67375 1.67375,-1.67375 0.92375,0 1.67375,0.74875 1.67375,1.67375" />
    <path
       inkscape:connector-curvature="0"
       id="path3144"
       style="fill:#231f20;fill-opacity:1;fill-rule:nonzero;stroke:none"
       d="m 307.00443,467.71865 -0.0838,0 c -0.001,0.8775 -0.7125,1.5875 -1.59,1.58875 -0.8775,-10e-4 -1.58875,-0.71125 -1.59,-1.58875 10e-4,-0.87875 0.7125,-1.58875 1.59,-1.59 0.8775,0.001 1.58875,0.71125 1.59,1.59 l 0.1675,0 c 0,-0.97125 -0.7875,-1.7575 -1.7575,-1.7575 -0.97,0 -1.7575,0.78625 -1.7575,1.7575 0,0.97 0.7875,1.75625 1.7575,1.75625 0.97,0 1.7575,-0.78625 1.7575,-1.75625 l -0.0838,0" />
    <path
       inkscape:connector-curvature="0"
       id="path3146"
       style="fill:#231f20;fill-opacity:1;fill-rule:evenodd;stroke:none"
       d="m 169.77319,484.4549 c 0,0.9225 -0.75,1.67375 -1.67375,1.67375 -0.92375,0 -1.67375,-0.75125 -1.67375,-1.67375 0,-0.925 0.75,-1.67375 1.67375,-1.67375 0.92375,0 1.67375,0.74875 1.67375,1.67375" />
    <path
       inkscape:connector-curvature="0"
       id="path3148"
       style="fill:#100f0d;fill-opacity:1;fill-rule:nonzero;stroke:none"
       d="m 169.77319,484.4549 -0.0838,0 c -0.001,0.87625 -0.71375,1.58875 -1.59,1.59 -0.8775,-10e-4 -1.58875,-0.71375 -1.59,-1.59 0.001,-0.87875 0.7125,-1.58875 1.59,-1.59 0.8775,0.001 1.58875,0.71125 1.59,1.59 l 0.1675,0 c 0,-0.97125 -0.7875,-1.7575 -1.7575,-1.7575 -0.97,0 -1.7575,0.78625 -1.7575,1.7575 0,0.96875 0.7875,1.7575 1.7575,1.7575 0.97,0 1.7575,-0.78875 1.7575,-1.7575 l -0.0838,0" />
    <path
       inkscape:connector-curvature="0"
       id="path3150"
       style="fill:#3741a0;fill-opacity:1;fill-rule:evenodd;stroke:none"
       d="m 179.81444,462.6749 c 0,0.925 -0.75,1.67375 -1.67375,1.67375 -0.92375,0 -1.67375,-0.74875 -1.67375,-1.67375 0,-0.9225 0.75,-1.6725 1.67375,-1.6725 0.92375,0 1.67375,0.75 1.67375,1.6725" />
    <path
       inkscape:connector-curvature="0"
       id="path3152"
       style="fill:#3741a0;fill-opacity:1;fill-rule:nonzero;stroke:none"
       d="m 179.81444,462.6749 -0.0837,0 c -0.001,0.8775 -0.7125,1.58875 -1.59,1.59 -0.8775,-0.001 -1.58875,-0.7125 -1.59,-1.59 0.001,-0.87625 0.7125,-1.58625 1.59,-1.58875 0.8775,0.002 1.58875,0.7125 1.59,1.58875 l 0.1675,0 c 0,-0.96875 -0.7875,-1.75625 -1.7575,-1.75625 -0.97,0 -1.7575,0.7875 -1.7575,1.75625 0,0.97125 0.7875,1.7575 1.7575,1.7575 0.97,0 1.7575,-0.78625 1.7575,-1.7575 l -0.0838,0" />
    <text
       style="font-size:15px"
       id="text3168"
       x="161.40494"
       y="466.03729">
      <tspan
         id="tspan3170"
         sodipodi:role="line"
         y="466.03729"
         x="161.40494 163.41058 166.42235"
         style="font-size:6.02474976px;font-variant:normal;font-weight:normal;writing-mode:lr-tb;fill:#100f0d;fill-opacity:1;fill-rule:nonzero;stroke:none;font-family:Times New Roman;-inkscape-font-specification:TimesNewRomanPS">(1)</tspan>
      <tspan
         id="tspan3172"
         sodipodi:role="line"
         y="449.30115"
         x="305.332 307.33765 310.3494"
         style="font-size:6.02474976px;font-variant:normal;font-weight:normal;writing-mode:lr-tb;fill:#100f0d;fill-opacity:1;fill-rule:nonzero;stroke:none;font-family:Times New Roman;-inkscape-font-specification:TimesNewRomanPS">(2)</tspan>
    </text>
    <text
       style="font-size:15px"
       id="text3174"
       x="154.71669"
       y="452.64993">
      <tspan
         id="tspan3176"
         sodipodi:role="line"
         y="452.64993"
         x="154.71669 160.7415 166.09154 170.77884"
         style="font-size:12.0496254px;font-variant:normal;font-weight:normal;writing-mode:lr-tb;fill:#100f0d;fill-opacity:1;fill-rule:nonzero;stroke:none;font-family:Times New Roman;-inkscape-font-specification:TimesNewRomanPS">base</tspan>
      <tspan
         id="tspan3178"
         sodipodi:role="line"
         y="498.50595"
         x="136.30487 140.99216"
         style="font-size:12.0496254px;font-variant:normal;font-weight:normal;writing-mode:lr-tb;fill:#100f0d;fill-opacity:1;fill-rule:nonzero;stroke:none;font-family:Times New Roman;-inkscape-font-specification:TimesNewRomanPS">su</tspan>
    </text>
    <g
       transform="matrix(1.25,0,0,-1.25,6.490684,1191.4011)"
       id="g3180">
      <g
         clip-path="url(#clipPath3184)"
         id="g3182">
        <text
           id="text3188"
           transform="matrix(1,0,0,-1,112.4216,554.316)">
          <tspan
             id="tspan3190"
             y="0"
             x="0"
             style="font-size:9.63969994px;font-variant:normal;font-weight:normal;writing-mode:lr-tb;fill:#100f0d;fill-opacity:1;fill-rule:nonzero;stroke:none;font-family:Times New Roman;-inkscape-font-specification:TimesNewRomanPS">g</tspan>
        </text>
      </g>
    </g>
    <text
       style="font-size:15px"
       id="text3192"
       x="153.04007"
       y="498.50616">
      <tspan
         id="tspan3194"
         sodipodi:role="line"
         y="498.50616"
         x="153.04007 158.39009"
         style="font-size:12.0496254px;font-variant:normal;font-weight:normal;writing-mode:lr-tb;fill:#100f0d;fill-opacity:1;fill-rule:nonzero;stroke:none;font-family:Times New Roman;-inkscape-font-specification:TimesNewRomanPS">ar</tspan>
      <tspan
         id="tspan3196"
         sodipodi:role="line"
         y="485.45282"
         x="287.5946 292.2807 298.30432 304.32794 309.67676"
         style="font-size:12.0496254px;font-variant:normal;font-weight:normal;writing-mode:lr-tb;fill:#100f0d;fill-opacity:1;fill-rule:nonzero;stroke:none;font-family:Times New Roman;-inkscape-font-specification:TimesNewRomanPS">sugar</tspan>
    </text>
    <g
       transform="matrix(1.25,0,0,-1.25,6.490684,1191.4011)"
       id="g3198">
      <g
         clip-path="url(#clipPath3202)"
         id="g3200">
        <path
           inkscape:connector-curvature="0"
           id="path3206"
           style="fill:#100f0d;fill-opacity:1;fill-rule:nonzero;stroke:none"
           d="m 137.367,582.705 84.419,15.084 -0.094,0.528 -84.419,-15.084" />
      </g>
    </g>
    <path
       inkscape:connector-curvature="0"
       id="path3208"
       style="fill:#231f20;fill-opacity:1;fill-rule:evenodd;stroke:none"
       d="m 276.67943,447.13865 5.4225,-3.03625 -6.1375,-1.005 0.715,4.04125" />
    <path
       inkscape:connector-curvature="0"
       id="path3210"
       style="fill:#100f0d;fill-opacity:1;fill-rule:nonzero;stroke:none"
       d="m 276.67943,447.13865 0.245,0.4375 6.67625,-3.7375 -8.25375,-1.35125 0.96125,5.43375 0.61625,-0.345 -0.245,-0.4375 0.495,-0.0875 -0.5925,-3.34375 4.02125,0.65875 -4.16875,2.33375 0.245,0.43875 0.495,-0.0875 -0.495,0.0875" />
    <text
       style="font-size:15px"
       id="text3216"
       x="299.12692"
       y="456.35117">
      <tspan
         id="tspan3218"
         y="456.35117"
         x="299.12692"
         style="font-size:13.38850021px;font-style:italic;font-variant:normal;font-weight:bold;writing-mode:lr-tb;fill:#100f0d;fill-opacity:1;fill-rule:nonzero;stroke:none;font-family:Times New Roman;-inkscape-font-specification:TimesNewRomanPS-BoldItalic">r</tspan>
    </text>
    <text
       style="font-size:15px"
       id="text3220"
       x="305.33069"
       y="457.66855">
      <tspan
         id="tspan3222"
         sodipodi:role="line"
         y="457.66855"
         x="305.33069 309.79578"
         style="font-size:6.69425011px;font-variant:normal;font-weight:normal;writing-mode:lr-tb;fill:#100f0d;fill-opacity:1;fill-rule:nonzero;stroke:none;font-family:Times New Roman;-inkscape-font-specification:TimesNewRomanPS">CN</tspan>
    </text>
    <text
       style="font-size:15px"
       id="text3234"
       x="161.40494"
       y="474.40491">
      <tspan
         id="tspan3236"
         sodipodi:role="line"
         y="474.40491"
         x="161.40494 165.87"
         style="font-size:6.69425011px;font-variant:normal;font-weight:normal;writing-mode:lr-tb;fill:#100f0d;fill-opacity:1;fill-rule:nonzero;stroke:none;font-family:Times New Roman;-inkscape-font-specification:TimesNewRomanPS">CN</tspan>
    </text>
    <text
       style="font-size:15px"
       id="text3238"
       x="219.97919"
       y="462.68723">
      <tspan
         id="tspan3240"
         y="462.68723"
         x="219.97919"
         style="font-size:13.38850021px;font-style:italic;font-variant:normal;font-weight:bold;writing-mode:lr-tb;fill:#100f0d;fill-opacity:1;fill-rule:nonzero;stroke:none;font-family:Times New Roman;-inkscape-font-specification:TimesNewRomanPS-BoldItalic">r</tspan>
    </text>
    <text
       style="font-size:15px"
       id="text3242"
       x="225.00056"
       y="464.36487">
      <tspan
         id="tspan3244"
         sodipodi:role="line"
         y="464.36487"
         x="225.00056 228.34769"
         style="font-size:6.69425011px;font-variant:normal;font-weight:normal;writing-mode:lr-tb;fill:#100f0d;fill-opacity:1;fill-rule:nonzero;stroke:none;font-family:Times New Roman;-inkscape-font-specification:TimesNewRomanPS">hb</tspan>
    </text>
    <text
       style="font-size:15px"
       id="text3246"
       x="198.71506"
       y="451.32974">
      <tspan
         id="tspan3248"
         y="451.32974"
         x="198.71506"
         style="font-size:11.71487427px;font-variant:normal;font-weight:normal;writing-mode:lr-tb;fill:#100f0d;fill-opacity:1;fill-rule:nonzero;stroke:none;font-family:Symbol;-inkscape-font-specification:Symbol">φ</tspan>
    </text>
    <text
       style="font-size:15px"
       id="text3250"
       x="238.38855"
       y="487.79099">
      <tspan
         id="tspan3252"
         sodipodi:role="line"
         y="487.79099"
         x="238.38855 242.85362"
         style="font-size:6.69425011px;font-variant:normal;font-weight:normal;writing-mode:lr-tb;fill:#100f0d;fill-opacity:1;fill-rule:nonzero;stroke:none;font-family:Times New Roman;-inkscape-font-specification:TimesNewRomanPS">CC</tspan>
    </text>
    <g
       transform="matrix(1.25,0,0,-1.25,6.490684,1191.4011)"
       id="g3254">
      <g
         clip-path="url(#clipPath3258)"
         id="g3256">
        <path
           inkscape:connector-curvature="0"
           id="path3262"
           style="fill:#100f0d;fill-opacity:1;fill-rule:nonzero;stroke:none"
           d="m 129.265,565.638 109.839,13.049 -0.064,0.531 -109.838,-13.048" />
      </g>
    </g>
    <path
       inkscape:connector-curvature="0"
       id="path3264"
       style="fill:#231f20;fill-opacity:1;fill-rule:evenodd;stroke:none"
       d="m 298.19068,470.6124 5.57875,-2.7225 -6.06875,-1.3625 0.49,4.085" />
    <path
       inkscape:connector-curvature="0"
       id="path3266"
       style="fill:#100f0d;fill-opacity:1;fill-rule:nonzero;stroke:none"
       d="m 298.19068,470.6124 0.22,0.45125 6.865,-3.35 -8.15875,-1.83125 0.66,5.49125 0.63375,-0.31 -0.22,-0.45125 0.49875,-0.06 -0.40625,-3.37875 3.98,0.8925 -4.2925,2.095 0.22,0.45125 0.49875,-0.06 -0.49875,0.06" />
    <text
       style="font-size:15px"
       id="text3268"
       x="233.3678"
       y="486.11612">
      <tspan
         id="tspan3270"
         y="486.11612"
         x="233.3678"
         style="font-size:13.38850021px;font-style:italic;font-variant:normal;font-weight:bold;writing-mode:lr-tb;fill:#100f0d;fill-opacity:1;fill-rule:nonzero;stroke:none;font-family:Times New Roman;-inkscape-font-specification:TimesNewRomanPS-BoldItalic">r</tspan>
    </text>
    <text
       style="font-size:15px"
       id="text3276"
       x="205.25256"
       y="454.65601">
      <tspan
         id="tspan3278"
         sodipodi:role="line"
         y="454.65601"
         x="205.25256 208.59969"
         style="font-size:6.69425011px;font-variant:normal;font-weight:normal;writing-mode:lr-tb;fill:#100f0d;fill-opacity:1;fill-rule:nonzero;stroke:none;font-family:Times New Roman;-inkscape-font-specification:TimesNewRomanPS">hb</tspan>
    </text>
    <text
       style="font-size:15px"
       id="text3280"
       x="246.91269"
       y="441.28854">
      <tspan
         id="tspan3282"
         y="441.28854"
         x="246.91269"
         style="font-size:11.71487427px;font-variant:normal;font-weight:normal;writing-mode:lr-tb;fill:#100f0d;fill-opacity:1;fill-rule:nonzero;stroke:none;font-family:Symbol;-inkscape-font-specification:Symbol">φ</tspan>
    </text>
    <text
       style="font-size:15px"
       id="text3284"
       x="253.44955"
       y="444.61349">
      <tspan
         id="tspan3286"
         sodipodi:role="line"
         y="444.61349"
         x="253.44955 256.79669"
         style="font-size:6.69425011px;font-variant:normal;font-weight:normal;writing-mode:lr-tb;fill:#100f0d;fill-opacity:1;fill-rule:nonzero;stroke:none;font-family:Times New Roman;-inkscape-font-specification:TimesNewRomanPS">hb</tspan>
    </text>
    <path
       inkscape:connector-curvature="0"
       id="path3296"
       style="fill:#231f20;fill-opacity:1;fill-rule:evenodd;stroke:none"
       d="m 226.72819,429.8149 c -0.85375,1.17625 -2.50125,1.4375 -3.6775,0.58125 -1.17625,-0.8525 -1.43625,-2.50125 -0.58125,-3.67625 0.85375,-1.17625 2.5,-1.4375 3.67625,-0.58375 1.17625,0.85375 1.4375,2.5025 0.5825,3.67875" />
    <path
       inkscape:connector-curvature="0"
       id="path3298"
       style="fill:#100f0d;fill-opacity:1;fill-rule:nonzero;stroke:none"
       d="m 226.72819,429.8149 -0.0675,-0.0488 c -0.49875,0.68625 -1.275,1.05 -2.06375,1.05 -0.52,0 -1.04375,-0.15875 -1.49625,-0.4875 -0.6875,-0.4975 -1.05125,-1.275 -1.05125,-2.06375 0,-0.52 0.15875,-1.04375 0.4875,-1.49625 0.49875,-0.68625 1.27625,-1.05125 2.065,-1.05125 0.51875,0 1.0425,0.1575 1.495,0.48625 0.68625,0.49875 1.05,1.27625 1.05,2.065 0,0.52 -0.1575,1.045 -0.48625,1.4975 l 0.0675,0.0488 0.0675,0.0487 c 0.35,-0.48125 0.51875,-1.04125 0.51875,-1.595 0,-0.84 -0.3875,-1.66875 -1.11875,-2.2 -0.4825,-0.35 -1.04125,-0.51875 -1.59375,-0.51875 -0.84,0 -1.67,0.38875 -2.20125,1.12 -0.35,0.48125 -0.51875,1.04125 -0.51875,1.595 0,0.84 0.38875,1.66875 1.12,2.19875 0.4825,0.35125 1.04125,0.52 1.595,0.52 0.84,0 1.66875,-0.38875 2.19875,-1.11875 l -0.0675,-0.05" />
    <path
       inkscape:connector-curvature="0"
       id="path3300"
       style="fill:#100f0d;fill-opacity:1;fill-rule:nonzero;stroke:none"
       d="m 228.66944,431.3924 -0.27,-0.1975 c -0.93,1.28 -2.37875,1.95875 -3.85125,1.95875 -0.96875,0 -1.94375,-0.29375 -2.7875,-0.90625 -1.28,-0.93125 -1.95875,-2.38 -1.96,-3.85125 0,-0.97 0.295,-1.945 0.9075,-2.78875 0.93,-1.28 2.37875,-1.95875 3.85125,-1.95875 0.96875,0 1.94375,0.29375 2.78875,0.9075 1.28,0.93 1.9575,2.37875 1.95875,3.85 0,0.96875 -0.295,1.945 -0.9075,2.79 l 0.54125,0.3925 c 0.69875,-0.96125 1.035,-2.0775 1.035,-3.1825 0.001,-1.67625 -0.775,-3.33125 -2.235,-4.39125 -0.96,-0.69875 -2.0775,-1.03625 -3.18125,-1.03625 -1.67625,0 -3.3325,0.77625 -4.3925,2.235 -0.69875,0.96125 -1.035,2.0775 -1.035,3.1825 0,1.67625 0.775,3.33125 2.235,4.3925 0.96,0.6975 2.0775,1.035 3.18125,1.035 1.67625,0 3.3325,-0.77625 4.3925,-2.235 l -0.27125,-0.19625" />
    <path
       inkscape:connector-curvature="0"
       id="path3680"
       style="fill:#100f0d;fill-opacity:1;fill-rule:nonzero;stroke:none"
       d="m 256.00193,412.2599 1.77625,2.005 0.25,-0.2225 -1.775,-2.00375 -0.25125,0.22125 z m 3.55125,4.01 1.775,2.00375 0.25,-0.22125 -1.775,-2.005 -0.25,0.2225 z m 3.55,4.00875 1.775,2.005 0.25125,-0.2225 -1.775,-2.005 -0.25125,0.2225 z m 3.55125,4.00875 1.775,2.005 0.25,-0.22125 -1.775,-2.005 -0.25,0.22125 z m 3.55,4.01 1.775,2.005 0.25125,-0.2225 -1.77625,-2.005 -0.25,0.2225 z m 3.55,4.00875 1.775,2.005 0.25125,-0.2225 -1.775,-2.00375 -0.25125,0.22125 z m 3.55125,4.01 1.775,2.00375 0.25,-0.22125 -1.775,-2.005 -0.25,0.2225 z m 3.55,4.00875 1.775,2.005 0.25125,-0.2225 -1.77625,-2.00375 -0.25,0.22125 z m 3.55,4.01 1.77625,2.00375 0.25,-0.22125 -1.775,-2.005 -0.25125,0.2225 z m 3.55125,4.00875 1.775,2.005 0.25,-0.2225 -1.775,-2.005 -0.25,0.2225 z m 3.55,4.00875 1.775,2.005 0.25125,-0.22125 -1.775,-2.005 -0.25125,0.22125 z m 3.55,4.01 1.77625,2.005 0.25,-0.2225 -1.775,-2.005 -0.25125,0.2225 z m 3.55125,4.00875 1.775,2.005 0.25,-0.2225 -1.775,-2.00375 -0.25,0.22125 z m 3.55,4.01 1.775,2.00375 0.25125,-0.22125 -1.775,-2.005 -0.25125,0.2225 z m -105.75999,-41.92625 -1.11875,2.43375 0.30375,0.14 1.11875,-2.43375 -0.30375,-0.14 z m -2.23625,4.86625 -1.11875,2.43375 0.305,0.14 1.1175,-2.43375 -0.30375,-0.14 z m -2.23625,4.86625 -1.1175,2.43375 0.30375,0.14 1.1175,-2.43375 -0.30375,-0.14 z m -2.23625,4.86625 -1.1175,2.43375 0.30375,0.14 1.11875,-2.43375 -0.305,-0.14 z m -2.235,4.86625 -1.11875,2.43375 0.305,0.14 1.1175,-2.43375 -0.30375,-0.14 z m -2.23625,4.86625 -1.1175,2.43375 0.30375,0.14 1.1175,-2.43375 -0.30375,-0.14 z m -2.23625,4.8675 -1.1175,2.4325 0.30375,0.14 1.11875,-2.43375 -0.305,-0.13875 z m -2.235,4.86625 -1.11875,2.4325 0.305,0.14 1.1175,-2.43375 -0.30375,-0.13875 z m -2.23625,4.86625 -1.1175,2.4325 0.30375,0.14 1.1175,-2.43375 -0.30375,-0.13875 z m -2.23625,4.86625 -1.1175,2.4325 0.30375,0.14 1.1175,-2.43375 -0.30375,-0.13875 z m -2.23625,4.86625 -1.1175,2.4325 0.305,0.14 1.1175,-2.43375 -0.305,-0.13875 z m -2.235,4.86625 -1.11875,2.4325 0.305,0.14 1.1175,-2.4325 -0.30375,-0.14 z m -2.23625,4.86625 -1.1175,2.4325 0.30375,0.14 1.1175,-2.4325" />
    <g
       transform="matrix(1.25,0,0,-1.25,6.490684,1191.4011)"
       id="g3682">
      <g
         clip-path="url(#clipPath3686)"
         id="g3684">
        <path
           inkscape:connector-curvature="0"
           id="path3690"
           style="fill:#100f0d;fill-opacity:1;fill-rule:nonzero;stroke:none"
           d="m 239.275,579.127 -16.065,18.743 -0.407,-0.349 16.066,-18.743" />
      </g>
    </g>
    <path
       inkscape:connector-curvature="0"
       id="path3692"
       style="fill:#231f20;fill-opacity:1;fill-rule:evenodd;stroke:none"
       d="m 291.76318,448.78865 -5.44375,-3.25875 2.3875,5.87 3.05625,-2.61125" />
    <path
       inkscape:connector-curvature="0"
       id="path3694"
       style="fill:#100f0d;fill-opacity:1;fill-rule:nonzero;stroke:none"
       d="m 291.76318,448.78865 0.25875,-0.43125 -6.73375,-4.02875 3.21625,7.905 4.11625,-3.5175 -0.59875,-0.35875 -0.25875,0.43125 -0.325,-0.3825 -2.52875,2.16 -1.55875,-3.83375 4.155,2.4875 0.2575,-0.43125 -0.325,-0.3825 0.325,0.3825" />
    <g
       transform="matrix(1.25,0,0,-1.25,6.490684,1191.4011)"
       id="g3696">
      <g
         clip-path="url(#clipPath3700)"
         id="g3698">
        <path
           inkscape:connector-curvature="0"
           id="path3704"
           style="fill:#100f0d;fill-opacity:1;fill-rule:nonzero;stroke:none"
           d="m 137.077,583.081 -8.033,-17.405 0.486,-0.224 8.033,17.405" />
      </g>
    </g>
    <path
       inkscape:connector-curvature="0"
       id="path3706"
       style="fill:#231f20;fill-opacity:1;fill-rule:evenodd;stroke:none"
       d="m 176.73569,470.4999 0.71375,-6.2925 -4.3525,4.61875 3.63875,1.67375" />
    <path
       inkscape:connector-curvature="0"
       id="path3708"
       style="fill:#100f0d;fill-opacity:1;fill-rule:nonzero;stroke:none"
       d="m 176.73569,470.4999 0.49875,0.0562 0.88375,-7.79125 -5.865,6.225 4.9025,2.25625 0.0788,-0.69 -0.49875,-0.0562 0.20875,-0.45625 -3.0025,-1.38125 2.83875,-3.0125 -0.54375,4.79375 0.49875,0.0563 0.20875,-0.45625 -0.20875,0.45625" />
  </g>
</svg>
