<?xml version="1.0" encoding="UTF-8" standalone="no"?>
<!-- Created with Inkscape (http://www.inkscape.org/) -->

<svg
   xmlns:dc="http://purl.org/dc/elements/1.1/"
   xmlns:cc="http://creativecommons.org/ns#"
   xmlns:rdf="http://www.w3.org/1999/02/22-rdf-syntax-ns#"
   xmlns:svg="http://www.w3.org/2000/svg"
   xmlns="http://www.w3.org/2000/svg"
   xmlns:sodipodi="http://sodipodi.sourceforge.net/DTD/sodipodi-0.dtd"
   xmlns:inkscape="http://www.inkscape.org/namespaces/inkscape"
   width="690.94489"
   height="725.48163"
   id="svg2844"
   version="1.1"
   inkscape:version="0.48.4 r9939"
   sodipodi:docname="logo-fixed.svg"
   inkscape:export-filename="/auto.anoa/home/olenz/projects/espresso/src/doc/logo/logo01.png"
   inkscape:export-xdpi="90"
   inkscape:export-ydpi="90"
   style="display:inline;enable-background:new">
  <sodipodi:namedview
     id="base"
     pagecolor="#ffffff"
     bordercolor="#666666"
     borderopacity="1.0"
     inkscape:pageopacity="0"
     inkscape:pageshadow="2"
     inkscape:zoom="0.70710678"
     inkscape:cx="216.46791"
     inkscape:cy="416.77458"
     inkscape:document-units="mm"
     inkscape:current-layer="layer2"
     showgrid="false"
     units="mm"
     showborder="true"
     borderlayer="false"
     inkscape:window-width="1512"
     inkscape:window-height="880"
     inkscape:window-x="33"
     inkscape:window-y="-3"
     inkscape:window-maximized="1"
     showguides="true"
     inkscape:snap-global="true"
     gridtolerance="10"
     inkscape:snap-page="true"
     inkscape:snap-grids="false">
    <inkscape:grid
       type="xygrid"
       id="grid2854"
       units="cm"
       empspacing="5"
       visible="true"
       enabled="true"
       snapvisiblegridlinesonly="true" />
  </sodipodi:namedview>
  <title
     id="title2840">ESPResSo Logo</title>
  <defs
     id="defs2846">
    <inkscape:perspective
       sodipodi:type="inkscape:persp3d"
       inkscape:vp_x="0 : 526.18109 : 1"
       inkscape:vp_y="0 : 1000 : 0"
       inkscape:vp_z="744.09448 : 526.18109 : 1"
       inkscape:persp3d-origin="372.04724 : 350.78739 : 1"
       id="perspective2852" />
    <inkscape:perspective
       id="perspective2924"
       inkscape:persp3d-origin="0.5 : 0.33333333 : 1"
       inkscape:vp_z="1 : 0.5 : 1"
       inkscape:vp_y="0 : 1000 : 0"
       inkscape:vp_x="0 : 0.5 : 1"
       sodipodi:type="inkscape:persp3d" />
    <inkscape:perspective
       id="perspective2886"
       inkscape:persp3d-origin="0.5 : 0.33333333 : 1"
       inkscape:vp_z="1 : 0.5 : 1"
       inkscape:vp_y="0 : 1000 : 0"
       inkscape:vp_x="0 : 0.5 : 1"
       sodipodi:type="inkscape:persp3d" />
    <inkscape:perspective
       sodipodi:type="inkscape:persp3d"
       inkscape:vp_x="0 : 0.5 : 1"
       inkscape:vp_y="0 : 1000 : 0"
       inkscape:vp_z="1 : 0.5 : 1"
       inkscape:persp3d-origin="0.5 : 0.33333333 : 1"
       id="perspective3780" />
    <inkscape:perspective
       sodipodi:type="inkscape:persp3d"
       inkscape:vp_x="0 : 0.5 : 1"
       inkscape:vp_y="0 : 1000 : 0"
       inkscape:vp_z="1 : 0.5 : 1"
       inkscape:persp3d-origin="0.5 : 0.33333333 : 1"
       id="perspective3826" />
    <inkscape:perspective
       sodipodi:type="inkscape:persp3d"
       inkscape:vp_x="0 : 0.5 : 1"
       inkscape:vp_y="0 : 1000 : 0"
       inkscape:vp_z="1 : 0.5 : 1"
       inkscape:persp3d-origin="0.5 : 0.33333333 : 1"
       id="perspective4941" />
    <inkscape:perspective
       sodipodi:type="inkscape:persp3d"
       inkscape:vp_x="0 : 0.5 : 1"
       inkscape:vp_y="0 : 1000 : 0"
       inkscape:vp_z="1 : 0.5 : 1"
       inkscape:persp3d-origin="0.5 : 0.33333333 : 1"
       id="perspective5015" />
    <inkscape:perspective
       sodipodi:type="inkscape:persp3d"
       inkscape:vp_x="0 : 0.5 : 1"
       inkscape:vp_y="0 : 1000 : 0"
       inkscape:vp_z="1 : 0.5 : 1"
       inkscape:persp3d-origin="0.5 : 0.33333333 : 1"
       id="perspective5110" />
    <inkscape:perspective
       sodipodi:type="inkscape:persp3d"
       inkscape:vp_x="0 : 0.5 : 1"
       inkscape:vp_y="0 : 1000 : 0"
       inkscape:vp_z="1 : 0.5 : 1"
       inkscape:persp3d-origin="0.5 : 0.33333333 : 1"
       id="perspective5184" />
    <inkscape:perspective
       id="perspective5774"
       inkscape:persp3d-origin="0.5 : 0.33333333 : 1"
       inkscape:vp_z="1 : 0.5 : 1"
       inkscape:vp_y="0 : 1000 : 0"
       inkscape:vp_x="0 : 0.5 : 1"
       sodipodi:type="inkscape:persp3d" />
    <inkscape:perspective
       id="perspective2897"
       inkscape:persp3d-origin="0.5 : 0.33333333 : 1"
       inkscape:vp_z="1 : 0.5 : 1"
       inkscape:vp_y="0 : 1000 : 0"
       inkscape:vp_x="0 : 0.5 : 1"
       sodipodi:type="inkscape:persp3d" />
    <inkscape:perspective
       id="perspective2905"
       inkscape:persp3d-origin="0.5 : 0.33333333 : 1"
       inkscape:vp_z="1 : 0.5 : 1"
       inkscape:vp_y="0 : 1000 : 0"
       inkscape:vp_x="0 : 0.5 : 1"
       sodipodi:type="inkscape:persp3d" />
    <inkscape:perspective
       id="perspective2979"
       inkscape:persp3d-origin="0.5 : 0.33333333 : 1"
       inkscape:vp_z="1 : 0.5 : 1"
       inkscape:vp_y="0 : 1000 : 0"
       inkscape:vp_x="0 : 0.5 : 1"
       sodipodi:type="inkscape:persp3d" />
    <inkscape:perspective
       id="perspective3054"
       inkscape:persp3d-origin="0.5 : 0.33333333 : 1"
       inkscape:vp_z="1 : 0.5 : 1"
       inkscape:vp_y="0 : 1000 : 0"
       inkscape:vp_x="0 : 0.5 : 1"
       sodipodi:type="inkscape:persp3d" />
    <inkscape:perspective
       sodipodi:type="inkscape:persp3d"
       inkscape:vp_x="0 : 0.5 : 1"
       inkscape:vp_y="0 : 1000 : 0"
       inkscape:vp_z="1 : 0.5 : 1"
       inkscape:persp3d-origin="0.5 : 0.33333333 : 1"
       id="perspective2853" />
    <inkscape:perspective
       sodipodi:type="inkscape:persp3d"
       inkscape:vp_x="0 : 0.5 : 1"
       inkscape:vp_y="0 : 1000 : 0"
       inkscape:vp_z="1 : 0.5 : 1"
       inkscape:persp3d-origin="0.5 : 0.33333333 : 1"
       id="perspective2898" />
  </defs>
  <metadata
     id="metadata2849">
    <rdf:RDF>
      <cc:Work
         rdf:about="">
        <dc:format>image/svg+xml</dc:format>
        <dc:type
           rdf:resource="http://purl.org/dc/dcmitype/StillImage" />
        <dc:title>ESPResSo Logo</dc:title>
        <cc:license
           rdf:resource="http://creativecommons.org/licenses/by-nc-sa/3.0/" />
        <dc:date>2012-03-27</dc:date>
        <dc:creator>
          <cc:Agent>
            <dc:title>Olaf Lenz</dc:title>
          </cc:Agent>
        </dc:creator>
        <dc:contributor>
          <cc:Agent>
            <dc:title>Axel Arnold
Hans-Jörg Limbach
Bernward Mann
Olaf Lenz
Stefan Kesselheim</dc:title>
          </cc:Agent>
        </dc:contributor>
        <dc:description>Logo of the ESPResSo MD software.</dc:description>
        <dc:relation>http://espressomd.org</dc:relation>
      </cc:Work>
      <cc:License
         rdf:about="http://creativecommons.org/licenses/by-nc-sa/3.0/">
        <cc:permits
           rdf:resource="http://creativecommons.org/ns#Reproduction" />
        <cc:permits
           rdf:resource="http://creativecommons.org/ns#Distribution" />
        <cc:requires
           rdf:resource="http://creativecommons.org/ns#Notice" />
        <cc:requires
           rdf:resource="http://creativecommons.org/ns#Attribution" />
        <cc:prohibits
           rdf:resource="http://creativecommons.org/ns#CommercialUse" />
        <cc:permits
           rdf:resource="http://creativecommons.org/ns#DerivativeWorks" />
        <cc:requires
           rdf:resource="http://creativecommons.org/ns#ShareAlike" />
      </cc:License>
    </rdf:RDF>
  </metadata>
  <g
     style="display:inline"
     inkscape:label="Background"
     inkscape:groupmode="layer"
     id="layer1"
     transform="translate(-8.8582686,-332.02226)">
    <path
       id="path4334"
       d="m 141.73228,393.13382 425.19687,0 c 58.88976,0 106.29921,47.40945 106.29921,106.29921 l 0,425.19687 c 0,58.88976 -47.40945,106.2992 -106.29921,106.2992 l -425.19687,0 c -58.889761,0 -106.299209,-47.40944 -106.299209,-106.2992 l 0,-425.19687 c 0,-58.88976 47.409448,-106.29921 106.299209,-106.29921 z"
       style="color:#000000;fill:#e7edf9;fill-opacity:1;fill-rule:nonzero;stroke:#475f91;stroke-width:53.1496048;stroke-linecap:butt;stroke-linejoin:miter;stroke-miterlimit:4;stroke-opacity:1;stroke-dasharray:none;stroke-dashoffset:0;marker:none;visibility:visible;display:inline;overflow:visible;enable-background:accumulate" />
  </g>
  <g
     inkscape:label="Text BG"
     id="layer4"
     inkscape:groupmode="layer"
     transform="translate(-8.8582686,11.678528)">
    <rect
       y="22.858234"
       x="148.95184"
       height="690.94489"
       width="410.75772"
       id="rect4112"
       style="color:#000000;fill:#e7edf9;fill-opacity:1;fill-rule:nonzero;stroke:#e7edf9;stroke-width:3;stroke-opacity:1;marker:none;visibility:visible;display:inline;overflow:visible;enable-background:accumulate" />
  </g>
  <g
     style="display:inline"
     inkscape:label="Cup and Text"
     id="layer2"
     inkscape:groupmode="layer"
     transform="translate(-8.8582686,11.678528)">
    <g
       transform="matrix(0.99999606,-0.00373812,0.00280762,1.3314159,0.03104748,-237.14677)"
       inkscape:transform-center-x="12.154122"
       inkscape:transform-center-y="-37.011196"
       style="font-size:80.73014832px;font-style:normal;font-weight:normal;fill:#475f91;fill-opacity:1;stroke:none;display:inline;font-family:Latin Modern Sans;-inkscape-font-specification:Latin Modern Sans"
       id="text3761">
      <path
         inkscape:connector-curvature="0"
         d="m 163.29346,705.11963 0,-53.17626 38.15761,0 0,8.98754 -26.529,0 0,12.77176 24.12444,0 0,8.98754 -24.12444,0 0,13.44188 28.14518,0 0,8.98754 -39.77379,0"
         style="font-variant:normal;font-weight:bold;font-stretch:normal;fill:#475f91;font-family:Liberation Mono;-inkscape-font-specification:Liberation Mono Bold"
         id="path2904" />
      <path
         inkscape:connector-curvature="0"
         d="m 252.22276,689.70679 c -4e-5,2.3126 -0.44679,4.4675 -1.34024,6.46472 -0.89355,1.97096 -2.24693,3.67912 -4.06016,5.12447 -1.81332,1.44537 -4.08648,2.57538 -6.81949,3.39004 -2.73309,0.81466 -5.93916,1.22199 -9.61824,1.22199 -6.17567,0 -11.20816,-1.30083 -15.09749,-3.90248 -3.88935,-2.60165 -6.38588,-6.38587 -7.48961,-11.35268 l 11.23442,-1.4585 c 0.60441,2.47027 1.86582,4.42808 3.78422,5.87343 1.91838,1.41909 4.54631,2.12863 7.88381,2.12863 1.57673,0 2.98268,-0.11825 4.21783,-0.35477 1.26138,-0.23651 2.33883,-0.61756 3.23236,-1.14316 0.89347,-0.52557 1.57673,-1.22198 2.04979,-2.0892 0.473,-0.89349 0.70951,-1.97094 0.70954,-3.23236 -3e-5,-1.41907 -0.4205,-2.57536 -1.2614,-3.46888 -0.8147,-0.91976 -1.86587,-1.66872 -3.15353,-2.24688 -1.26143,-0.60441 -2.66738,-1.09057 -4.21783,-1.4585 -1.55051,-0.39417 -3.04843,-0.78836 -4.49377,-1.18258 -1.23515,-0.3416 -2.53597,-0.70951 -3.90248,-1.10373 -1.34026,-0.42044 -2.65423,-0.91975 -3.9419,-1.49792 -1.2877,-0.57812 -2.50969,-1.24824 -3.66597,-2.01037 -1.1563,-0.78835 -2.16806,-1.72127 -3.03527,-2.79875 -0.86722,-1.07742 -1.56362,-2.31255 -2.0892,-3.70539 -0.49932,-1.41905 -0.74897,-3.03523 -0.74897,-4.84854 0,-2.57533 0.55187,-4.79593 1.6556,-6.66181 1.13001,-1.89207 2.62793,-3.44255 4.49377,-4.65145 1.86582,-1.23507 4.00759,-2.14171 6.4253,-2.71991 2.41768,-0.60437 4.9405,-0.90658 7.56845,-0.90664 5.88655,6e-5 10.48543,1.16949 13.79666,3.5083 3.31115,2.31263 5.45292,5.91289 6.4253,10.80081 l -11.27384,1.14315 c -0.57818,-2.39138 -1.61621,-4.19151 -3.1141,-5.40041 -1.49795,-1.2088 -3.52146,-1.81322 -6.07053,-1.81327 -1.65562,5e-5 -3.03529,0.17086 -4.139,0.51245 -1.07747,0.31539 -1.95783,0.76214 -2.64107,1.34024 -0.657,0.55191 -1.13003,1.19576 -1.41909,1.93154 -0.26281,0.70958 -0.3942,1.45854 -0.39419,2.24688 -10e-6,1.26145 0.32848,2.31262 0.98548,3.15352 0.65696,0.8147 1.51104,1.49796 2.56223,2.04979 1.07744,0.5519 2.29943,1.02493 3.66597,1.41908 1.39278,0.36795 2.79873,0.73586 4.21784,1.10374 1.39277,0.34166 2.825,0.73585 4.29667,1.18257 1.47161,0.4205 2.91697,0.93294 4.33609,1.53734 1.41905,0.57817 2.7593,1.27457 4.02074,2.08921 1.26137,0.7884 2.3651,1.73446 3.3112,2.83817 0.94601,1.10375 1.69497,2.39144 2.24688,3.86306 0.5781,1.47166 0.86718,3.16668 0.86722,5.08505"
         style="font-variant:normal;font-weight:bold;font-stretch:normal;fill:#475f91;font-family:Liberation Mono;-inkscape-font-specification:Liberation Mono Bold"
         id="path2906" />
      <path
         inkscape:connector-curvature="0"
         d="m 299.72268,668.73588 c -5e-5,2.39145 -0.40737,4.66461 -1.22199,6.81949 -0.78842,2.12865 -2.01041,3.99448 -3.66597,5.5975 -1.65564,1.60306 -3.75798,2.87761 -6.30704,3.82364 -2.54913,0.9198 -5.57125,1.37969 -9.06638,1.37967 l -7.76554,0 0,18.76345 -11.62861,0 0,-53.17626 18.92113,0 c 3.54768,6e-5 6.62236,0.39425 9.22405,1.18257 2.60162,0.76216 4.75652,1.86589 6.46472,3.3112 1.70811,1.44541 2.96952,3.20613 3.78422,5.28215 0.8409,2.07611 1.26136,4.41497 1.26141,7.01659 m -11.70745,0.19709 c -3e-5,-2.86441 -0.86725,-4.90106 -2.60165,-6.10995 -1.70819,-1.23508 -4.28356,-1.85265 -7.72613,-1.85269 l -5.99169,0 0,16.43773 6.30704,0 c 3.46885,3e-5 6.0048,-0.70951 7.60787,-2.12863 1.60301,-1.44533 2.40453,-3.56082 2.40456,-6.34646"
         style="font-variant:normal;font-weight:bold;font-stretch:normal;fill:#475f91;font-family:Liberation Mono;-inkscape-font-specification:Liberation Mono Bold"
         id="path2908" />
      <path
         inkscape:connector-curvature="0"
         d="m 338.39274,705.11963 -11.43152,-20.3008 -6.81949,0 0,20.3008 -11.62861,0 0,-53.17626 19.473,0 c 6.93771,6e-5 12.12788,1.35344 15.57051,4.06016 3.44255,2.70682 5.16384,6.6093 5.16389,11.70745 -5e-5,1.94471 -0.27598,3.70542 -0.8278,5.28215 -0.55191,1.57679 -1.31401,2.96959 -2.2863,4.17842 -0.97238,1.18259 -2.12867,2.20749 -3.46888,3.07468 -1.34028,0.84096 -2.81192,1.49794 -4.41493,1.97095 l 13.75724,22.90245 -13.08711,0 m -1.37967,-36.93562 c -3e-5,-1.34021 -0.23655,-2.47022 -0.70954,-3.39004 -0.44678,-0.91973 -1.10376,-1.65555 -1.97095,-2.20746 -0.86725,-0.5781 -1.9447,-0.98543 -3.23236,-1.22199 -1.26144,-0.26275 -2.7068,-0.39415 -4.33609,-0.39419 l -6.6224,0 0,14.82155 6.93775,0 c 3.46885,3e-5 5.99166,-0.64381 7.56845,-1.93153 1.57673,-1.31394 2.36511,-3.20605 2.36514,-5.67634"
         style="font-variant:normal;font-weight:bold;font-stretch:normal;fill:#475f91;font-family:Liberation Mono;-inkscape-font-specification:Liberation Mono Bold"
         id="path2910" />
      <path
         inkscape:connector-curvature="0"
         d="m 376.19558,705.90801 c -3.07471,0 -5.8866,-0.44675 -8.43567,-1.34025 -2.54911,-0.91977 -4.7303,-2.29944 -6.54356,-4.13899 -1.81328,-1.86583 -3.23237,-4.19155 -4.25725,-6.97717 -0.99862,-2.81188 -1.49793,-6.09679 -1.49793,-9.85475 0,-4.07328 0.57814,-7.50273 1.73444,-10.28837 1.18256,-2.78557 2.74618,-5.03246 4.69086,-6.74065 1.94466,-1.7344 4.16527,-2.98266 6.66182,-3.74481 2.5228,-0.76206 5.12445,-1.14311 7.80496,-1.14315 3.36373,4e-5 6.2676,0.59133 8.71161,1.77386 2.47022,1.15633 4.52001,2.78565 6.14936,4.88796 1.62928,2.10238 2.83813,4.62519 3.62655,7.56845 0.78834,2.91703 1.18253,6.14939 1.18257,9.69708 l 0,0.31535 -28.93356,0 c -1e-5,1.78701 0.19708,3.45575 0.59129,5.00621 0.42045,1.52422 1.02488,2.85132 1.81327,3.98132 0.81464,1.10374 1.8264,1.9841 3.03527,2.64108 1.20883,0.63071 2.61477,0.94606 4.21783,0.94605 1.94465,1e-5 3.66594,-0.40732 5.16389,-1.22199 1.4979,-0.84093 2.50965,-2.12861 3.03527,-3.86306 l 10.44604,0.90664 c -0.47307,1.20886 -1.18261,2.49654 -2.12863,3.86306 -0.91982,1.36653 -2.1418,2.62794 -3.66597,3.78423 -1.52424,1.13001 -3.39007,2.07607 -5.5975,2.83817 -2.18121,0.73582 -4.78287,1.10373 -7.80496,1.10373 m 0,-37.25097 c -1.13004,3e-5 -2.23377,0.19713 -3.3112,0.59128 -1.05119,0.36795 -1.99725,0.97237 -2.83817,1.81328 -0.81468,0.81469 -1.4848,1.879 -2.01037,3.19294 -0.5256,1.31399 -0.81468,2.89075 -0.86722,4.73028 l 18.13275,0 c -0.10515,-1.70813 -0.4205,-3.20605 -0.94606,-4.49377 -0.49934,-1.28765 -1.15632,-2.36511 -1.97095,-3.23236 -0.78841,-0.86718 -1.72132,-1.51102 -2.79875,-1.93153 -1.0512,-0.44671 -2.18121,-0.67009 -3.39003,-0.67012"
         style="font-variant:normal;font-weight:bold;font-stretch:normal;fill:#475f91;font-family:Liberation Mono;-inkscape-font-specification:Liberation Mono Bold"
         id="path2912" />
      <path
         inkscape:connector-curvature="0"
         d="m 443.44442,692.66322 c -4e-5,2.0498 -0.43365,3.88935 -1.30082,5.51866 -0.84099,1.62933 -2.07611,3.02213 -3.70539,4.17842 -1.62936,1.13001 -3.62659,2.01037 -5.99169,2.64107 -2.36517,0.60443 -5.0588,0.90664 -8.0809,0.90664 -2.7068,0 -5.15077,-0.1971 -7.33194,-0.59129 -2.1812,-0.39419 -4.09959,-1.03803 -5.75518,-1.93153 -1.62932,-0.91977 -2.99585,-2.10234 -4.09957,-3.54771 -1.10374,-1.44536 -1.93154,-3.23235 -2.4834,-5.36099 l 9.7365,-1.4585 c 0.31533,1.18258 0.74894,2.14178 1.30082,2.87759 0.55185,0.73583 1.23512,1.30083 2.04979,1.69502 0.81464,0.39419 1.7607,0.65699 2.83817,0.78838 1.10371,0.1314 2.35198,0.1971 3.74481,0.19709 1.26138,1e-5 2.43081,-0.0657 3.50829,-0.19709 1.1037,-0.15767 2.04976,-0.40733 2.83817,-0.74896 0.81463,-0.36791 1.44533,-0.86721 1.89211,-1.49793 0.44672,-0.65697 0.67009,-1.47163 0.67013,-2.44398 -4e-5,-1.10372 -0.32853,-1.97093 -0.98548,-2.60165 -0.63074,-0.65697 -1.51109,-1.18256 -2.64107,-1.57676 -1.10376,-0.42046 -2.41773,-0.77523 -3.94191,-1.06432 -1.49794,-0.31533 -3.10098,-0.6701 -4.80912,-1.06431 -1.78701,-0.39417 -3.54772,-0.8672 -5.28214,-1.41908 -1.73445,-0.55185 -3.28493,-1.30081 -4.65145,-2.24689 -1.36653,-0.94603 -2.47027,-2.14174 -3.3112,-3.58713 -0.84094,-1.47162 -1.26141,-3.32431 -1.2614,-5.55808 -1e-5,-2.02348 0.39418,-3.82361 1.18257,-5.40041 0.78837,-1.603 1.94466,-2.95638 3.46887,-4.06015 1.52419,-1.12997 3.40316,-1.98405 5.63692,-2.56224 2.26,-0.60438 4.84852,-0.90659 7.76555,-0.90664 2.31255,5e-5 4.46746,0.22342 6.46471,0.67013 1.9972,0.42051 3.7842,1.10377 5.36099,2.04978 1.57672,0.91982 2.89069,2.10239 3.9419,3.54772 1.07741,1.4454 1.82638,3.19297 2.24689,5.24273 l -9.81534,1.02489 c -0.18399,-1.02486 -0.51248,-1.8658 -0.98547,-2.52282 -0.47306,-0.68323 -1.06435,-1.22195 -1.77386,-1.61618 -0.68329,-0.39415 -1.48481,-0.65694 -2.40456,-0.78838 -0.9198,-0.15764 -1.93156,-0.23648 -3.03526,-0.23651 -2.62796,3e-5 -4.59891,0.34167 -5.91286,1.02489 -1.31398,0.65702 -1.97096,1.77389 -1.97095,3.35062 -1e-5,0.97237 0.26278,1.74761 0.78838,2.32572 0.55185,0.57818 1.31395,1.06434 2.28631,1.45851 0.99859,0.36793 2.16802,0.69643 3.50829,0.98547 1.3665,0.26282 2.85128,0.59131 4.45435,0.98548 1.97092,0.42049 3.90245,0.9198 5.79459,1.49792 1.91836,0.55189 3.61338,1.32713 5.08506,2.32572 1.49788,0.97236 2.69359,2.23377 3.58713,3.78423 0.91973,1.55049 1.37962,3.52144 1.37966,5.91285"
         style="font-variant:normal;font-weight:bold;font-stretch:normal;fill:#475f91;font-family:Liberation Mono;-inkscape-font-specification:Liberation Mono Bold"
         id="path2914" />
      <path
         inkscape:connector-curvature="0"
         d="m 494.25554,689.70679 c -5e-5,2.3126 -0.4468,4.4675 -1.34025,6.46472 -0.89354,1.97096 -2.24693,3.67912 -4.06016,5.12447 -1.81331,1.44537 -4.08647,2.57538 -6.81949,3.39004 -2.73308,0.81466 -5.93916,1.22199 -9.61824,1.22199 -6.17566,0 -11.20815,-1.30083 -15.09748,-3.90248 -3.88935,-2.60165 -6.38589,-6.38587 -7.48962,-11.35268 l 11.23442,-1.4585 c 0.60442,2.47027 1.86582,4.42808 3.78423,5.87343 1.91837,1.41909 4.54631,2.12863 7.8838,2.12863 1.57674,0 2.98268,-0.11825 4.21784,-0.35477 1.26138,-0.23651 2.33883,-0.61756 3.23236,-1.14316 0.89346,-0.52557 1.57673,-1.22198 2.04979,-2.0892 0.47299,-0.89349 0.70951,-1.97094 0.70954,-3.23236 -3e-5,-1.41907 -0.4205,-2.57536 -1.26141,-3.46888 -0.81469,-0.91976 -1.86586,-1.66872 -3.15352,-2.24688 -1.26144,-0.60441 -2.66738,-1.09057 -4.21784,-1.4585 -1.5505,-0.39417 -3.04842,-0.78836 -4.49376,-1.18258 -1.23515,-0.3416 -2.53598,-0.70951 -3.90249,-1.10373 -1.34026,-0.42044 -2.65422,-0.91975 -3.9419,-1.49792 -1.2877,-0.57812 -2.50969,-1.24824 -3.66597,-2.01037 -1.1563,-0.78835 -2.16805,-1.72127 -3.03526,-2.79875 -0.86723,-1.07742 -1.56363,-2.31255 -2.08921,-3.70539 -0.49931,-1.41905 -0.74896,-3.03523 -0.74896,-4.84854 0,-2.57533 0.55186,-4.79593 1.6556,-6.66181 1.13,-1.89207 2.62792,-3.44255 4.49377,-4.65145 1.86582,-1.23507 4.00758,-2.14171 6.4253,-2.71991 2.41768,-0.60437 4.94049,-0.90658 7.56845,-0.90664 5.88654,6e-5 10.48542,1.16949 13.79665,3.5083 3.31116,2.31263 5.45292,5.91289 6.4253,10.80081 l -11.27383,1.14315 c -0.57818,-2.39138 -1.61622,-4.19151 -3.11411,-5.40041 -1.49795,-1.2088 -3.52146,-1.81322 -6.07053,-1.81327 -1.65562,5e-5 -3.03528,0.17086 -4.13899,0.51245 -1.07747,0.31539 -1.95783,0.76214 -2.64108,1.34024 -0.657,0.55191 -1.13002,1.19576 -1.41908,1.93154 -0.26281,0.70958 -0.39421,1.45854 -0.39419,2.24688 -2e-5,1.26145 0.32847,2.31262 0.98547,3.15352 0.65697,0.8147 1.51105,1.49796 2.56224,2.04979 1.07743,0.5519 2.29942,1.02493 3.66597,1.41908 1.39278,0.36795 2.79872,0.73586 4.21783,1.10374 1.39278,0.34166 2.825,0.73585 4.29668,1.18257 1.47161,0.4205 2.91697,0.93294 4.33609,1.53734 1.41905,0.57817 2.75929,1.27457 4.02074,2.08921 1.26137,0.7884 2.3651,1.73446 3.3112,2.83817 0.94601,1.10375 1.69497,2.39144 2.24688,3.86306 0.5781,1.47166 0.86717,3.16668 0.86722,5.08505"
         style="font-variant:normal;font-weight:bold;font-stretch:normal;fill:#475f91;font-family:Liberation Mono;-inkscape-font-specification:Liberation Mono Bold"
         id="path2916" />
      <path
         inkscape:connector-curvature="0"
         d="m 541.55836,683.75452 c -4e-5,3.25866 -0.40737,6.24136 -1.22199,8.94812 -0.8147,2.70678 -2.07611,5.04564 -3.78422,7.01658 -1.68192,1.94468 -3.83683,3.46888 -6.46472,4.57261 -2.60169,1.07745 -5.70265,1.61618 -9.30289,1.61618 -3.4689,0 -6.47788,-0.53873 -9.02696,-1.61618 -2.54911,-1.07745 -4.67773,-2.58851 -6.38588,-4.53319 -1.68188,-1.94466 -2.94329,-4.27038 -3.78422,-6.97716 -0.81467,-2.73304 -1.222,-5.74202 -1.22199,-9.02696 -1e-5,-3.17977 0.39418,-6.10992 1.18257,-8.79044 0.78837,-2.70674 2.01036,-5.0456 3.66597,-7.01658 1.68186,-1.97092 3.82363,-3.50826 6.4253,-4.61203 2.62791,-1.10369 5.75515,-1.65556 9.38172,-1.6556 3.83676,4e-5 7.05598,0.55191 9.65766,1.6556 2.6279,1.10377 4.74338,2.64111 6.34646,4.61203 1.62928,1.9447 2.78557,4.27042 3.46888,6.97716 0.70949,2.68052 1.06427,5.62381 1.06431,8.82986 m -11.58919,0 c -3e-5,-2.52279 -0.17085,-4.69084 -0.51245,-6.50414 -0.31538,-1.83952 -0.82783,-3.35058 -1.53734,-4.53318 -0.68329,-1.18254 -1.58993,-2.04976 -2.71991,-2.60166 -1.10376,-0.55183 -2.44401,-0.82776 -4.02074,-0.8278 -3.25866,4e-5 -5.61066,1.15633 -7.05601,3.46888 -1.4191,2.31261 -2.12864,5.97857 -2.12862,10.9979 -2e-5,5.07193 0.72266,8.77732 2.16804,11.11616 1.47163,2.31259 3.63967,3.46888 6.50414,3.46888 1.62929,0 3.03524,-0.27593 4.21784,-0.8278 1.18254,-0.57814 2.14173,-1.4585 2.87758,-2.64108 0.76207,-1.18255 1.31394,-2.69362 1.6556,-4.53318 0.36788,-1.83954 0.55184,-4.03386 0.55187,-6.58298"
         style="font-variant:normal;font-weight:bold;font-stretch:normal;fill:#475f91;font-family:Liberation Mono;-inkscape-font-specification:Liberation Mono Bold"
         id="path2918" />
    </g>
  </g>
</svg>
