<?xml version="1.0" encoding="UTF-8" standalone="no"?>
<svg
   xmlns:dc="http://purl.org/dc/elements/1.1/"
   xmlns:cc="http://creativecommons.org/ns#"
   xmlns:rdf="http://www.w3.org/1999/02/22-rdf-syntax-ns#"
   xmlns:svg="http://www.w3.org/2000/svg"
   xmlns="http://www.w3.org/2000/svg"
   version="1.1"
   id="svg2"
   xml:space="preserve"
   width="385.1752"
   height="188.8096"
   viewBox="0 0 385.1752 188.8096"><metadata
     id="metadata8"><rdf:RDF><cc:Work
         rdf:about=""><dc:format>image/svg+xml</dc:format><dc:type
           rdf:resource="http://purl.org/dc/dcmitype/StillImage" /><dc:title></dc:title></cc:Work></rdf:RDF></metadata><defs
     id="defs6" /><g
     id="g10"
     transform="matrix(1.3333333,0,0,-1.3333333,-2.7373999,188.58466)"><g
       id="g12"
       transform="translate(9.589,77.004)"><g
         id="g14"><g
           id="g16"><g
             id="g50"><g
               id="g52"><g
                 id="g54"
                 transform="translate(0,-27.916)"><g
                   id="g56" /><g
                   id="g58"
                   transform="translate(0,27.916)" /></g></g><path
               d="M 0,27.91643 C -4.05199,25.2906 -7.3367,10.66356 -7.3367,-4.75444 -7.3367,-20.17245 -4.05199,-30.54227 0,-27.91643 4.05199,-25.2906 7.3367,-10.66356 7.3367,4.75444 7.3367,20.17245 4.05199,30.54227 0,27.91643"
               style="fill:none;stroke:#000000;stroke-width:0.3985;stroke-linecap:butt;stroke-linejoin:miter;stroke-miterlimit:10;stroke-dasharray:none;stroke-opacity:1"
               id="path60" /><g
               id="g62"><g
                 id="g64"
                 transform="translate(273.806,-40.654)"><g
                   id="g66" /><g
                   id="g68"
                   transform="translate(-273.806,40.654)" /></g></g><path
               d="m 273.80951,15.17824 c -4.05199,-2.62584 -7.3367,-17.25286 -7.3367,-32.67087 0,-15.41801 3.28471,-25.78784 7.3367,-23.162 4.052,2.62583 7.3367,17.25288 7.3367,32.6709 0,15.418 -3.2847,25.78781 -7.3367,23.16197"
               style="fill:none;stroke:#000000;stroke-width:0.3985;stroke-linecap:butt;stroke-linejoin:miter;stroke-miterlimit:10;stroke-dasharray:none;stroke-opacity:1"
               id="path70" /><path
               d="M 1.1604835,28.339523 275.11505,15.589245"
               style="fill:none;stroke:#000000;stroke-width:0.3985;stroke-linecap:butt;stroke-linejoin:miter;stroke-miterlimit:10;stroke-dasharray:none;stroke-opacity:1"
               id="path72" /><path
               d="M -1.2907131,-28.318175 272.64903,-41.065635"
               style="fill:none;stroke:#000000;stroke-width:0.3985;stroke-linecap:butt;stroke-linejoin:miter;stroke-miterlimit:10;stroke-dasharray:none;stroke-opacity:1"
               id="path74" /><g
               id="g76"><g
                 id="g78"><g
                   id="g80"
                   transform="translate(27.38,-29.189)"><g
                     id="g82" /><g
                     id="g84"
                     transform="translate(-27.38,29.189)" /></g></g></g><g
               id="g86"><path
                 d="m 27.38095,26.64261 c -4.052,-2.62583 -7.33671,-17.25287 -7.33671,-32.67087 0,-15.41801 3.28471,-25.78783 7.33671,-23.16199 4.05199,2.62583 7.3367,17.25287 7.3367,32.67087 0,15.41802 -3.28471,25.78783 -7.3367,23.16199"
                 style="fill:none;stroke:#808080;stroke-width:0.19925;stroke-linecap:butt;stroke-linejoin:miter;stroke-miterlimit:10;stroke-dasharray:none;stroke-opacity:1"
                 id="path88" /></g><g
               id="g90"><g
                 id="g92"><g
                   id="g94"
                   transform="translate(246.425,-39.38)"><g
                     id="g96" /><g
                     id="g98"
                     transform="translate(-246.425,39.38)" /></g></g></g><g
               id="g100"><path
                 d="m 246.42856,16.45206 c -4.05199,-2.62584 -7.3367,-17.25286 -7.3367,-32.67087 0,-15.41802 3.28471,-25.78784 7.3367,-23.162 4.052,2.62584 7.3367,17.25288 7.3367,32.67089 0,15.418 -3.2847,25.78782 -7.3367,23.16198"
                 style="fill:none;stroke:#808080;stroke-width:0.19925;stroke-linecap:butt;stroke-linejoin:miter;stroke-miterlimit:10;stroke-dasharray:none;stroke-opacity:1"
                 id="path102" /></g><path
               d="m 12.70753,-66.6156 29.34682,19.0178 V 64.06795 L 12.70753,45.05016 Z"
               style="fill:none;stroke:#000000;stroke-width:0.3985;stroke-linecap:butt;stroke-linejoin:miter;stroke-miterlimit:10;stroke-dasharray:none;stroke-opacity:1"
               id="path104" /><path
               d="m 231.75516,-76.80615 29.34681,19.0178 V 53.8774 L 231.75516,34.8596 Z"
               style="fill:none;stroke:#000000;stroke-width:0.3985;stroke-linecap:butt;stroke-linejoin:miter;stroke-miterlimit:10;stroke-dasharray:none;stroke-opacity:1"
               id="path106" /><g
               id="g108"><g
                 id="g110"
                 transform="translate(109.522,-46.969)"><g
                   id="g112" /><g
                   id="g114"
                   transform="translate(-109.522,46.969)" /></g></g><path
               d="m 109.5238,28.374606 c -6.078,-3.143347 -11.00505,-20.6530501 -11.00505,-39.109627 0,-18.456593 4.92705,-30.870074 11.00505,-27.726736 6.07799,3.143331 11.00505,20.65305 11.00505,39.10962746 0,18.45659354 -4.92706,30.87006654 -11.00505,27.72673554"
               style="fill:none;stroke:#000000;stroke-width:0.35599521;stroke-linecap:butt;stroke-linejoin:miter;stroke-miterlimit:10;stroke-dasharray:none;stroke-opacity:1"
               id="path116" /><g
               id="g118"><g
                 id="g120"
                 transform="translate(164.283,-29.975)"><g
                   id="g122" /><g
                   id="g124"
                   transform="translate(-164.283,29.975)" /></g></g><path
               d="m 164.2857,5.8036842 c -3.2416,-1.2812958 -5.86938,-8.418692 -5.86938,-15.9420262 0,-7.523345 2.62778,-12.583399 5.86938,-11.302102 3.24161,1.281301 5.86939,8.418697 5.86939,15.9420433 0,7.5233397 -2.62778,12.5833808 -5.86939,11.3020849"
               style="fill:none;stroke:#000000;stroke-width:0.31122476;stroke-linecap:butt;stroke-linejoin:miter;stroke-miterlimit:10;stroke-dasharray:none;stroke-opacity:1"
               id="path126" /><g
               id="g128"><g
                 id="g130"
                 transform="translate(109.522,-38.594)"><g
                   id="g132" /><g
                   id="g134"
                   transform="translate(-109.522,38.594)" /></g></g><path
               d="m 109.5238,22.856336 c -4.86238,-2.62007 -8.80401,-17.2150233 -8.80401,-32.5991846 0,-15.3841864 3.94163,-25.7312524 8.80401,-23.1111814 4.86238,2.62007 8.80402,17.215006 8.80402,32.5991843 0,1.6055868 -0.0429,3.1563079 -0.12537,4.6431485 -0.70741,12.7595592 -4.32374,20.8146502 -8.67865,18.4680332"
               style="fill:none;stroke:#000000;stroke-width:0.36338022;stroke-linecap:butt;stroke-linejoin:miter;stroke-miterlimit:10;stroke-dasharray:none;stroke-opacity:1"
               id="path136" /><g
               id="g138"><g
                 id="g140"
                 transform="translate(164.283,-21.6)"><g
                   id="g142" /><g
                   id="g144"
                   transform="translate(-164.283,21.6)" /></g></g><path
               d="m 164.2857,0.19142801 c -2.02598,-0.76807193 -3.66834,-5.04654601 -3.66834,-9.55639171 0,-4.5098463 1.64236,-7.5430783 3.66834,-6.7750003 2.02599,0.768066 3.66836,5.046552 3.66836,9.5563976 0,4.5098398 -1.64237,7.54306053 -3.66836,6.77499441"
               style="fill:none;stroke:#000000;stroke-width:0.30479661;stroke-linecap:butt;stroke-linejoin:miter;stroke-miterlimit:10;stroke-dasharray:none;stroke-opacity:1"
               id="path146" /><path
               d="M 111.55351,28.883025 165.37516,5.9904661"
               style="fill:none;stroke:#000000;stroke-width:0.3985;stroke-linecap:butt;stroke-linejoin:miter;stroke-miterlimit:10;stroke-dasharray:none;stroke-opacity:1"
               id="path148" /><path
               d="m 107.85561,-38.943242 55.62811,17.318092"
               style="fill:none;stroke:#000000;stroke-width:0.3985;stroke-linecap:butt;stroke-linejoin:miter;stroke-miterlimit:10;stroke-dasharray:none;stroke-opacity:1"
               id="path150" /><path
               d="M 110.91811,23.25687 164.93533,0.31109677"
               style="fill:none;stroke:#000000;stroke-width:0.3985;stroke-linecap:butt;stroke-linejoin:miter;stroke-miterlimit:10;stroke-dasharray:none;stroke-opacity:1"
               id="path152" /><path
               d="m 107.95231,-33.396911 55.78298,17.148362"
               style="fill:none;stroke:#000000;stroke-width:0.3985;stroke-linecap:butt;stroke-linejoin:miter;stroke-miterlimit:10;stroke-dasharray:none;stroke-opacity:1"
               id="path154" /></g><g
             id="g156"><g
               id="g212" /></g></g></g></g></g></svg>