<?xml version="1.0" encoding="UTF-8" standalone="no"?>
<svg
   xmlns:dc="http://purl.org/dc/elements/1.1/"
   xmlns:cc="http://creativecommons.org/ns#"
   xmlns:rdf="http://www.w3.org/1999/02/22-rdf-syntax-ns#"
   xmlns:svg="http://www.w3.org/2000/svg"
   xmlns="http://www.w3.org/2000/svg"
   viewBox="0 0 502.67468 365.10001"
   height="365.10001"
   width="502.67468"
   xml:space="preserve"
   id="svg2"
   version="1.1"><metadata
     id="metadata8"><rdf:RDF><cc:Work
         rdf:about=""><dc:format>image/svg+xml</dc:format><dc:type
           rdf:resource="http://purl.org/dc/dcmitype/StillImage" /></cc:Work></rdf:RDF></metadata><defs
     id="defs6" /><g
     transform="matrix(1.3333333,0,0,-1.3333333,0,365.1)"
     id="g10"><g
       transform="translate(148.818,208.345)"
       id="g12"><g
         id="g14"><g
           id="g16"><g
             id="g18"><g
               transform="translate(-145.165,37.195)"
               id="g20"><g
                 id="g22"><g
                   transform="translate(-3.653,-245.54)"
                   id="g24"><text
                     id="text28"
                     style="font-variant:normal;font-weight:normal;font-size:9.96259975px;font-family:CMSS10;-inkscape-font-specification:CMSS10;writing-mode:lr-tb;fill:#000000;fill-opacity:1;fill-rule:nonzero;stroke:none"
                     transform="matrix(1,0,0,-1,3.653,245.54)"><tspan
                       id="tspan26"
                       y="0"
                       x="0 3.8744552 8.6624804">(a)</tspan></text>
<g
                     transform="translate(3.653,245.54)"
                     id="g30" /></g></g><g
                 transform="translate(145.165,-37.195)"
                 id="g32" /></g></g><g
             id="g34"><g
               transform="translate(53.079,37.195)"
               id="g36"><g
                 id="g38"><g
                   transform="translate(-201.897,-245.54)"
                   id="g40"><text
                     id="text44"
                     style="font-variant:normal;font-weight:normal;font-size:9.96259975px;font-family:CMSS10;-inkscape-font-specification:CMSS10;writing-mode:lr-tb;fill:#000000;fill-opacity:1;fill-rule:nonzero;stroke:none"
                     transform="matrix(1,0,0,-1,201.897,245.54)"><tspan
                       id="tspan42"
                       y="0"
                       x="0 3.8744552 9.022131">(b)</tspan></text>
<g
                     transform="translate(201.897,245.54)"
                     id="g46" /></g></g><g
                 transform="translate(-53.079,-37.195)"
                 id="g48" /></g></g><g
             id="g50"><g
               transform="translate(-144.985,-101.702)"
               id="g52"><g
                 id="g54"><g
                   transform="translate(-3.833,-106.643)"
                   id="g56"><text
                     id="text60"
                     style="font-variant:normal;font-weight:normal;font-size:9.96259975px;font-family:CMSS10;-inkscape-font-specification:CMSS10;writing-mode:lr-tb;fill:#000000;fill-opacity:1;fill-rule:nonzero;stroke:none"
                     transform="matrix(1,0,0,-1,3.833,106.643)"><tspan
                       id="tspan58"
                       y="0"
                       x="0 3.8744552 8.3018341">(c)</tspan></text>
<g
                     transform="translate(3.833,106.643)"
                     id="g62" /></g></g><g
                 transform="translate(144.985,101.702)"
                 id="g64" /></g></g><g
             id="g66"><g
               transform="translate(53.079,-101.702)"
               id="g68"><g
                 id="g70"><g
                   transform="translate(-201.897,-106.643)"
                   id="g72"><text
                     id="text76"
                     style="font-variant:normal;font-weight:normal;font-size:9.96259975px;font-family:CMSS10;-inkscape-font-specification:CMSS10;writing-mode:lr-tb;fill:#000000;fill-opacity:1;fill-rule:nonzero;stroke:none"
                     transform="matrix(1,0,0,-1,201.897,106.643)"><tspan
                       id="tspan74"
                       y="0"
                       x="0 3.8744552 9.022131">(d)</tspan></text>
<g
                     transform="translate(201.897,106.643)"
                     id="g78" /></g></g><g
                 transform="translate(-53.079,101.702)"
                 id="g80" /></g></g><g
             id="g82"><g
               id="g84"><path
                 id="path86"
                 style="fill:none;stroke:#808080;stroke-width:0.19925;stroke-linecap:butt;stroke-linejoin:miter;stroke-miterlimit:10;stroke-dasharray:none;stroke-opacity:1"
                 d="M -149.16676,-54.29216 36.97766,13.45874" /><g
                 transform="matrix(0.94089,0.34245,-0.34245,0.94089,36.97766,13.45874)"
                 id="g88"><g
                   id="g90"><path
                     id="path92"
                     style="fill:none;stroke:#808080;stroke-width:0.15938;stroke-linecap:round;stroke-linejoin:round;stroke-miterlimit:10;stroke-dasharray:none;stroke-opacity:1"
                     d="M -1.01619,1.35492 C -0.93149,0.84682 0,0.08467 0.25403,0 0,-0.08467 -0.93149,-0.84682 -1.01619,-1.35492" /></g></g></g><g
               id="g94"><path
                 id="path96"
                 style="fill:none;stroke:#808080;stroke-width:0.19925;stroke-linecap:butt;stroke-linejoin:miter;stroke-miterlimit:10;stroke-dasharray:none;stroke-opacity:1"
                 d="M 0,0 -10.85846,29.83345 M -65.26044,-23.7528 -76.11891,6.08063" /></g><path
               id="path98"
               style="fill:none;stroke:#000000;stroke-width:0.3985;stroke-linecap:butt;stroke-linejoin:miter;stroke-miterlimit:10;stroke-dasharray:none;stroke-opacity:1"
               d="M 18.64583,6.7865 C 14.8977,17.08444 3.51143,22.39395 -6.7865,18.64583 -17.08444,14.8977 -22.39395,3.51143 -18.64583,-6.7865 -14.8977,-17.08444 -3.51143,-22.39395 6.7865,-18.64583 17.08444,-14.8977 22.39395,-3.51143 18.64583,6.7865 Z" /><path
               id="path100"
               style="fill:none;stroke:#000000;stroke-width:0.3985;stroke-linecap:butt;stroke-linejoin:miter;stroke-miterlimit:10;stroke-dasharray:none;stroke-opacity:1"
               d="m -130.52083,-47.5059 c 0,0 2.54325,-1.95771 3.48639,-2.61718 0.94314,-0.65944 2.43762,-1.66751 3.31116,-2.13575 0.87355,-0.46824 2.21634,-1.05954 2.98477,-1.23897 0.76841,-0.17943 1.91091,-0.22043 2.55354,-0.0543 0.64266,0.16614 1.56449,0.73144 2.07825,1.25165 0.51378,0.52024 1.22475,1.66485 1.62469,2.49784 0.39995,0.83297 0.94063,2.44541 1.25779,3.50583 0.31717,1.06039 0.7511,2.9662 1.0281,4.1369 0.27704,1.17068 0.68334,3.15239 0.96848,4.30075 0.28516,1.14835 0.74628,2.97938 1.08671,3.97584 0.34045,0.99646 0.93183,2.46967 1.36695,3.20599 0.43512,0.73629 1.21325,1.69634 1.76913,2.1009 0.55588,0.40457 1.55142,0.76724 2.2372,0.81493 0.68577,0.04765 1.89885,-0.18726 2.70538,-0.47138 0.80652,-0.2841 2.20632,-1.03206 3.10758,-1.57642 0.90124,-0.54433 2.43144,-1.65055 3.38801,-2.34687 0.95656,-0.69632 2.5415,-1.95301 3.50621,-2.67176 0.96474,-0.71875 2.52219,-1.89987 3.44683,-2.50848 0.92463,-0.60861 2.37546,-1.49672 3.21734,-1.87799 0.84191,-0.38127 2.12239,-0.80141 2.85045,-0.86995 0.72807,-0.06858 1.79781,0.09035 2.39701,0.3759 0.59916,0.28554 1.44816,1.05096 1.92155,1.68212 0.47341,0.63114 1.12209,1.94688 1.49037,2.86682 0.36829,0.91995 0.86534,2.65231 1.16397,3.76361 0.29865,1.11129 0.71416,3.06765 0.98845,4.24586 0.27431,1.17818 0.6899,3.13434 0.98845,4.24584 0.29858,1.11149 0.79535,2.84458 1.16348,3.76503 0.36811,0.92042 1.01647,2.23704 1.48963,2.86882 0.47317,0.6318 1.3217,1.39845 1.92064,1.68467 0.59893,0.28621 1.66832,0.44611 2.39616,0.37819 0.72784,-0.06792 2.00793,-0.48697 2.84962,-0.86767 0.84168,-0.38074 2.29221,-1.26801 3.21673,-1.8763 0.92453,-0.60831 2.4819,-1.78922 3.44661,-2.50792 0.9647,-0.7187 2.54972,-1.97555 3.50634,-2.67205 0.95661,-0.69648 2.48693,-1.80299 3.38832,-2.34773 0.90139,-0.54475 2.30155,-1.29368 3.1083,-1.57841 0.80674,-0.28471 2.0202,-0.52066 2.70619,-0.47363 0.686,0.04704 1.68195,0.4087 2.23803,0.81263 0.55611,0.40392 1.33466,1.36289 1.76996,2.09865 0.43534,0.73577 1.02698,2.20819 1.36757,3.20427 0.34059,0.99606 0.80191,2.82654 1.08713,3.9747 0.28523,1.14816 0.69157,3.12973 0.96858,4.30048 0.27701,1.17073 0.71085,3.07672 1.02791,4.13746 0.31705,1.06072 0.85744,2.674 1.25716,3.50753 0.39973,0.83355 1.11031,1.97921 1.62385,2.5001 0.51352,0.52091 1.43492,1.08741 2.07732,1.25422 0.64239,0.1668 1.7845,0.12687 2.55274,-0.05201 0.76821,-0.17888 2.11077,-0.7695 2.98412,-1.23727 0.87338,-0.46777 2.36751,-1.47489 3.31057,-2.13408 0.94303,-0.65916 3.48625,-2.61687 3.48625,-2.61687" /><path
               id="path102"
               style="fill:none;stroke:#000000;stroke-width:0.3985;stroke-linecap:butt;stroke-linejoin:miter;stroke-miterlimit:10;stroke-dasharray:none;stroke-opacity:1"
               d="M 0,0 23.5835,8.58366" /><g
               transform="matrix(0.94089,0.34245,-0.34245,0.94089,23.5835,8.58366)"
               id="g104"><g
                 id="g106"><path
                   id="path108"
                   style="fill:#000000;fill-opacity:1;fill-rule:nonzero;stroke:#000000;stroke-width:0.3985;stroke-linecap:butt;stroke-linejoin:miter;stroke-miterlimit:10;stroke-dasharray:none;stroke-opacity:1"
                   d="M -4.36018,2.6899 0.29886,0 -4.36018,-2.6899 Z" /></g></g><g
               id="g110"><path
                 id="path112"
                 style="fill:#000000;fill-opacity:1;fill-rule:nonzero;stroke:#000000;stroke-width:0.3985;stroke-linecap:butt;stroke-linejoin:miter;stroke-miterlimit:10;stroke-dasharray:none;stroke-opacity:1"
                 d="M 1.40903,0 C 1.40903,0.77818 0.77818,1.40903 0,1.40903 -0.77818,1.40903 -1.40903,0.77818 -1.40903,0 c 0,-0.77818 0.63085,-1.40903 1.40903,-1.40903 0.77818,0 1.40903,0.63085 1.40903,1.40903 z" /><g
                 id="g114"><g
                   id="g116" /></g></g><g
               id="g118"><g
                 transform="translate(12.12,0.892)"
                 id="g120"><g
                   id="g122" /><g
                   transform="translate(-12.12,-0.892)"
                   id="g124" /></g></g><path
               id="path126"
               style="fill:none;stroke:#000000;stroke-width:0.3985;stroke-linecap:butt;stroke-linejoin:miter;stroke-miterlimit:10;stroke-dasharray:none;stroke-opacity:1"
               d="m -65.26044,-23.7528 -19.4812,-7.0906" /><g
               transform="matrix(-0.94089,-0.34245,0.34245,-0.94089,-84.74164,-30.8434)"
               id="g128"><g
                 id="g130"><path
                   id="path132"
                   style="fill:none;stroke:#000000;stroke-width:0.3985;stroke-linecap:butt;stroke-linejoin:miter;stroke-miterlimit:10;stroke-dasharray:none;stroke-opacity:1"
                   d="M -1.2e-4,2.6899 4.6589,0 -1.2e-4,-2.6899 Z" /></g></g><g
               id="g134"><path
                 id="path136"
                 style="fill:#000000;fill-opacity:1;fill-rule:nonzero;stroke:#000000;stroke-width:0.3985;stroke-linecap:butt;stroke-linejoin:miter;stroke-miterlimit:10;stroke-dasharray:none;stroke-opacity:1"
                 d="m -63.85141,-23.7528 c 0,0.77818 -0.63084,1.40903 -1.40903,1.40903 -0.7782,0 -1.40904,-0.63085 -1.40904,-1.40903 0,-0.7782 0.63084,-1.40905 1.40904,-1.40905 0.77819,0 1.40903,0.63085 1.40903,1.40905 z" /><g
                 transform="translate(-65.259,-23.752)"
                 id="g138"><g
                   id="g140" /><g
                   transform="translate(65.259,23.752)"
                   id="g142" /></g></g><g
               id="g144"><g
                 transform="translate(-77.379,-31.683)"
                 id="g146"><g
                   id="g148" /><g
                   transform="translate(77.379,31.683)"
                   id="g150" /></g></g><g
               id="g152"><path
                 id="path154"
                 style="fill:none;stroke:#0000cc;stroke-width:0.3985;stroke-linecap:butt;stroke-linejoin:miter;stroke-miterlimit:10;stroke-dasharray:none;stroke-opacity:1"
                 d="M -10.61095,27.81181 -75.00905,4.37286" /><g
                 transform="matrix(0.94089,0.34245,-0.34245,0.94089,-10.61095,27.81181)"
                 id="g156"><g
                   id="g158"><path
                     id="path160"
                     style="fill:none;stroke:#0000cc;stroke-width:0.31878999;stroke-linecap:round;stroke-linejoin:round;stroke-miterlimit:10;stroke-dasharray:none;stroke-opacity:1"
                     d="M -1.19551,1.59401 C -1.09587,0.99626 0,0.09961 0.29886,0 0,-0.09961 -1.09587,-0.99626 -1.19551,-1.59401" /></g></g><g
                 transform="matrix(-0.94089,-0.34245,0.34245,-0.94089,-75.00905,4.37286)"
                 id="g162"><g
                   id="g164"><path
                     id="path166"
                     style="fill:none;stroke:#0000cc;stroke-width:0.31878999;stroke-linecap:round;stroke-linejoin:round;stroke-miterlimit:10;stroke-dasharray:none;stroke-opacity:1"
                     d="M -1.19551,1.59401 C -1.09587,0.99626 0,0.09961 0.29886,0 0,-0.09961 -1.09587,-0.99626 -1.19551,-1.59401" /></g></g><g
                 id="g168"><g
                   transform="translate(-44.885,19.612)"
                   id="g170"><g
                     id="g172"><g
                       transform="translate(-103.933,-227.957)"
                       id="g174"><text
                         id="text178"
                         style="font-variant:normal;font-weight:normal;font-size:9.96259975px;font-family:CMMI10;-inkscape-font-specification:CMMI10;writing-mode:lr-tb;fill:#0000cc;fill-opacity:1;fill-rule:nonzero;stroke:none"
                         transform="matrix(1,0,0,-1,103.933,227.957)"><tspan
                           id="tspan176"
                           y="0"
                           x="0">`</tspan></text>
<g
                         transform="translate(103.933,227.957)"
                         id="g180" /></g></g><g
                     transform="translate(44.885,-19.612)"
                     id="g182" /></g></g></g></g><g
             id="g184"><g
               id="g186"><path
                 id="path188"
                 style="fill:none;stroke:#808080;stroke-width:0.19925;stroke-linecap:butt;stroke-linejoin:miter;stroke-miterlimit:10;stroke-dasharray:none;stroke-opacity:1"
                 d="M 178.58366,-93.89662 99.38208,43.28783" /><g
                 transform="matrix(-0.50156,0.86877,-0.86877,-0.50156,99.38208,43.28783)"
                 id="g190"><g
                   id="g192"><path
                     id="path194"
                     style="fill:none;stroke:#808080;stroke-width:0.15938;stroke-linecap:round;stroke-linejoin:round;stroke-miterlimit:10;stroke-dasharray:none;stroke-opacity:1"
                     d="M -1.01619,1.35492 C -0.93149,0.84682 0,0.08467 0.25403,0 0,-0.08467 -0.93149,-0.84682 -1.01619,-1.35492" /></g></g></g><g
               id="g196"><path
                 id="path198"
                 style="fill:none;stroke:#808080;stroke-width:0.19925;stroke-linecap:butt;stroke-linejoin:miter;stroke-miterlimit:10;stroke-dasharray:none;stroke-opacity:1"
                 d="M 158.74142,-59.52802 131.24646,-75.40187 M 124.0175,0.617 96.52254,-15.25682" /></g><path
               id="path200"
               style="fill:none;stroke:#000000;stroke-width:0.3985;stroke-linecap:butt;stroke-linejoin:miter;stroke-miterlimit:10;stroke-dasharray:none;stroke-opacity:1"
               d="m 148.82031,-42.34372 c -9.49075,-5.47934 -12.74254,-17.61467 -7.2632,-27.10542 5.47936,-9.49074 17.61467,-12.74253 27.10543,-7.26319 9.49075,5.47934 12.74252,17.61467 7.26318,27.10543 -5.47934,9.49073 -17.61467,12.74252 -27.10541,7.26318 z" /><path
               id="path202"
               style="fill:none;stroke:#000000;stroke-width:0.3985;stroke-linecap:butt;stroke-linejoin:miter;stroke-miterlimit:10;stroke-dasharray:none;stroke-opacity:1"
               d="M 141.55731,-49.6065 C 79.37244,77.94638 21.26848,19.84413 100.1175,-69.86417" /><path
               id="path204"
               style="fill:none;stroke:#000000;stroke-width:0.3985;stroke-linecap:butt;stroke-linejoin:miter;stroke-miterlimit:10;stroke-dasharray:none;stroke-opacity:1"
               d="m 158.74161,-39.6854 c -79.36917,117.63178 0.001,138.89852 38.26409,25.75834" /><path
               id="path206"
               style="fill:none;stroke:#000000;stroke-width:0.3985;stroke-linecap:butt;stroke-linejoin:miter;stroke-miterlimit:10;stroke-dasharray:none;stroke-opacity:1"
               d="m 158.74142,-59.52802 -12.54769,21.73377" /><g
               transform="matrix(-0.50159,0.86877,-0.86877,-0.50159,146.19373,-37.79425)"
               id="g208"><g
                 id="g210"><path
                   id="path212"
                   style="fill:#000000;fill-opacity:1;fill-rule:nonzero;stroke:#000000;stroke-width:0.3985;stroke-linecap:butt;stroke-linejoin:miter;stroke-miterlimit:10;stroke-dasharray:none;stroke-opacity:1"
                   d="M -4.36018,2.6899 0.29886,0 -4.36018,-2.6899 Z" /></g></g><g
               id="g214"><path
                 id="path216"
                 style="fill:#000000;fill-opacity:1;fill-rule:nonzero;stroke:#000000;stroke-width:0.3985;stroke-linecap:butt;stroke-linejoin:miter;stroke-miterlimit:10;stroke-dasharray:none;stroke-opacity:1"
                 d="m 160.15047,-59.52802 c 0,0.77819 -0.63087,1.40905 -1.40905,1.40905 -0.77819,0 -1.40904,-0.63086 -1.40904,-1.40905 0,-0.77819 0.63085,-1.40904 1.40904,-1.40904 0.77818,0 1.40905,0.63085 1.40905,1.40904 z" /><g
                 transform="translate(158.739,-59.527)"
                 id="g218"><g
                   id="g220" /><g
                   transform="translate(-158.739,59.527)"
                   id="g222" /></g></g><g
               id="g224"><g
                 transform="translate(152.291,-51.877)"
                 id="g226"><g
                   id="g228" /><g
                   transform="translate(-152.291,51.877)"
                   id="g230" /></g></g><path
               id="path232"
               style="fill:none;stroke:#000000;stroke-width:0.3985;stroke-linecap:butt;stroke-linejoin:miter;stroke-miterlimit:10;stroke-dasharray:none;stroke-opacity:1"
               d="m 124.0175,0.617 10.36077,-17.94586" /><g
               transform="matrix(0.50159,-0.86877,0.86877,0.50159,134.37827,-17.32886)"
               id="g234"><g
                 id="g236"><path
                   id="path238"
                   style="fill:none;stroke:#000000;stroke-width:0.3985;stroke-linecap:butt;stroke-linejoin:miter;stroke-miterlimit:10;stroke-dasharray:none;stroke-opacity:1"
                   d="M -1.2e-4,2.6899 4.6589,0 -1.2e-4,-2.6899 Z" /></g></g><g
               id="g240"><path
                 id="path242"
                 style="fill:#000000;fill-opacity:1;fill-rule:nonzero;stroke:#000000;stroke-width:0.3985;stroke-linecap:butt;stroke-linejoin:miter;stroke-miterlimit:10;stroke-dasharray:none;stroke-opacity:1"
                 d="m 125.42654,0.617 c 0,0.7782 -0.63084,1.40905 -1.40904,1.40905 -0.77818,0 -1.40904,-0.63085 -1.40904,-1.40905 0,-0.77816 0.63086,-1.40902 1.40904,-1.40902 0.7782,0 1.40904,0.63086 1.40904,1.40902 z" /><g
                 transform="translate(124.016,0.617)"
                 id="g244"><g
                   id="g246" /><g
                   transform="translate(-124.016,-0.617)"
                   id="g248" /></g></g><g
               id="g250"><g
                 transform="translate(130.465,-14.072)"
                 id="g252"><g
                   id="g254" /><g
                   transform="translate(-130.465,14.072)"
                   id="g256" /></g></g><g
               id="g258"><path
                 id="path260"
                 style="fill:none;stroke:#0000cc;stroke-width:0.3985;stroke-linecap:butt;stroke-linejoin:miter;stroke-miterlimit:10;stroke-dasharray:none;stroke-opacity:1"
                 d="m 132.73512,-74.01155 -34.2642,59.34877" /><g
                 transform="matrix(0.50157,-0.86877,0.86877,0.50157,132.73512,-74.01155)"
                 id="g262"><g
                   id="g264"><path
                     id="path266"
                     style="fill:none;stroke:#0000cc;stroke-width:0.31878999;stroke-linecap:round;stroke-linejoin:round;stroke-miterlimit:10;stroke-dasharray:none;stroke-opacity:1"
                     d="M -1.19551,1.59401 C -1.09587,0.99626 0,0.09961 0.29886,0 0,-0.09961 -1.09587,-0.99626 -1.19551,-1.59401" /></g></g><g
                 transform="matrix(-0.50157,0.86877,-0.86877,-0.50157,98.47092,-14.66278)"
                 id="g268"><g
                   id="g270"><path
                     id="path272"
                     style="fill:none;stroke:#0000cc;stroke-width:0.31878999;stroke-linecap:round;stroke-linejoin:round;stroke-miterlimit:10;stroke-dasharray:none;stroke-opacity:1"
                     d="M -1.19551,1.59401 C -1.09587,0.99626 0,0.09961 0.29886,0 0,-0.09961 -1.09587,-0.99626 -1.19551,-1.59401" /></g></g><g
                 id="g274"><g
                   transform="translate(107.931,-54.774)"
                   id="g276"><g
                     id="g278"><g
                       transform="translate(-256.749,-153.571)"
                       id="g280"><text
                         id="text284"
                         style="font-variant:normal;font-weight:normal;font-size:9.96259975px;font-family:CMMI10;-inkscape-font-specification:CMMI10;writing-mode:lr-tb;fill:#0000cc;fill-opacity:1;fill-rule:nonzero;stroke:none"
                         transform="matrix(1,0,0,-1,256.749,153.571)"><tspan
                           id="tspan282"
                           y="0"
                           x="0">`</tspan></text>
<g
                         transform="translate(256.749,153.571)"
                         id="g286" /></g></g><g
                     transform="translate(-107.931,54.774)"
                     id="g288" /></g></g></g></g><g
             id="g290"><path
               id="path292"
               style="fill:none;stroke:#000000;stroke-width:0.3985;stroke-linecap:butt;stroke-linejoin:miter;stroke-miterlimit:10;stroke-dasharray:none;stroke-opacity:1"
               d="M -24.80334,-148.82008 H 0.2948" /><g
               transform="translate(0.2948,-148.82008)"
               id="g294"><g
                 id="g296"><path
                   id="path298"
                   style="fill:#000000;fill-opacity:1;fill-rule:nonzero;stroke:#000000;stroke-width:0.3985;stroke-linecap:butt;stroke-linejoin:miter;stroke-miterlimit:10;stroke-dasharray:none;stroke-opacity:1"
                   d="M -4.36018,2.6899 0.29886,0 -4.36018,-2.6899 Z" /></g></g><g
               id="g300"><path
                 id="path302"
                 style="fill:#000000;fill-opacity:1;fill-rule:nonzero;stroke:#000000;stroke-width:0.3985;stroke-linecap:butt;stroke-linejoin:miter;stroke-miterlimit:10;stroke-dasharray:none;stroke-opacity:1"
                 d="m -23.3943,-148.82008 c 0,0.77819 -0.63085,1.40904 -1.40904,1.40904 -0.77819,0 -1.40905,-0.63085 -1.40905,-1.40904 0,-0.77819 0.63086,-1.40905 1.40905,-1.40905 0.77819,0 1.40904,0.63086 1.40904,1.40905 z" /><g
                 transform="translate(-24.803,-148.818)"
                 id="g304"><g
                   id="g306" /><g
                   transform="translate(24.803,148.818)"
                   id="g308" /></g></g><path
               id="path310"
               style="fill:none;stroke:#000000;stroke-width:0.3985;stroke-linecap:butt;stroke-linejoin:miter;stroke-miterlimit:10;stroke-dasharray:none;stroke-opacity:1"
               d="m -94.2527,-148.82008 h -20.73811" /><g
               transform="rotate(180,-57.495405,-74.41004)"
               id="g312"><g
                 id="g314"><path
                   id="path316"
                   style="fill:none;stroke:#000000;stroke-width:0.3985;stroke-linecap:butt;stroke-linejoin:miter;stroke-miterlimit:10;stroke-dasharray:none;stroke-opacity:1"
                   d="M -1.2e-4,2.6899 4.6589,0 -1.2e-4,-2.6899 Z" /></g></g><g
               id="g318"><path
                 id="path320"
                 style="fill:#000000;fill-opacity:1;fill-rule:nonzero;stroke:#000000;stroke-width:0.3985;stroke-linecap:butt;stroke-linejoin:miter;stroke-miterlimit:10;stroke-dasharray:none;stroke-opacity:1"
                 d="m -92.84366,-148.82008 c 0,0.77819 -0.63084,1.40904 -1.40904,1.40904 -0.77818,0 -1.40904,-0.63085 -1.40904,-1.40904 0,-0.77819 0.63086,-1.40905 1.40904,-1.40905 0.7782,0 1.40904,0.63086 1.40904,1.40905 z" /><g
                 transform="translate(-94.251,-148.818)"
                 id="g322"><g
                   id="g324" /><g
                   transform="translate(94.251,148.818)"
                   id="g326" /></g></g><path
               id="path328"
               style="fill:none;stroke:#000000;stroke-width:0.3985;stroke-linecap:butt;stroke-linejoin:miter;stroke-miterlimit:10;stroke-dasharray:none;stroke-opacity:1"
               d="m -138.89874,-138.89876 c 65.33983,4.10958 65.33983,4.10958 69.44938,39.68536" /><g
               id="g330"><g
                 id="g332"><g
                   id="g334"><g
                     transform="matrix(0.80385,0.60272,-0.60272,0.80385,-82.01385,-131.64333)"
                     id="g336"><g
                       id="g338"><g
                         transform="scale(-1,1)"
                         id="g340"><path
                           id="path342"
                           style="fill:none;stroke:#000000;stroke-width:1.59404004;stroke-linecap:round;stroke-linejoin:round;stroke-miterlimit:10;stroke-dasharray:none;stroke-opacity:1"
                           d="M -2.63017,3.50691 C -2.411,2.19182 0,0.21918 0.65753,0 0,-0.21918 -2.411,-2.19182 -2.63017,-3.50691" /></g></g></g></g></g></g><path
               id="path344"
               style="fill:none;stroke:#000000;stroke-width:0.3985;stroke-linecap:butt;stroke-linejoin:miter;stroke-miterlimit:10;stroke-dasharray:none;stroke-opacity:1"
               d="m -138.89874,-158.74141 c 65.33983,-4.10956 65.33983,-4.10956 69.44938,-39.68535" /><g
               id="g346"><g
                 id="g348"><g
                   id="g350"><g
                     transform="matrix(0.80385,-0.60281,0.60281,0.80385,-82.01317,-165.99695)"
                     id="g352"><g
                       id="g354"><g
                         transform="scale(-1,1)"
                         id="g356"><path
                           id="path358"
                           style="fill:none;stroke:#000000;stroke-width:1.59404004;stroke-linecap:round;stroke-linejoin:round;stroke-miterlimit:10;stroke-dasharray:none;stroke-opacity:1"
                           d="M -2.63017,3.50691 C -2.411,2.19182 0,0.21918 0.65753,0 0,-0.21918 -2.411,-2.19182 -2.63017,-3.50691" /></g></g></g></g></g></g><path
               id="path360"
               style="fill:none;stroke:#000000;stroke-width:0.3985;stroke-linecap:butt;stroke-linejoin:miter;stroke-miterlimit:10;stroke-dasharray:none;stroke-opacity:1"
               d="m 19.84268,-138.89876 c -65.33981,4.10958 -65.33981,4.10958 -69.44937,39.68536" /><g
               id="g362"><g
                 id="g364"><g
                   id="g366"><g
                     transform="matrix(-0.80385,0.60281,-0.60281,-0.80385,-37.04279,-131.64313)"
                     id="g368"><g
                       id="g370"><g
                         transform="scale(-1,1)"
                         id="g372"><path
                           id="path374"
                           style="fill:none;stroke:#000000;stroke-width:1.59404004;stroke-linecap:round;stroke-linejoin:round;stroke-miterlimit:10;stroke-dasharray:none;stroke-opacity:1"
                           d="M -2.63017,3.50691 C -2.411,2.19182 0,0.21918 0.65753,0 0,-0.21918 -2.411,-2.19182 -2.63017,-3.50691" /></g></g></g></g></g></g><path
               id="path376"
               style="fill:none;stroke:#000000;stroke-width:0.3985;stroke-linecap:butt;stroke-linejoin:miter;stroke-miterlimit:10;stroke-dasharray:none;stroke-opacity:1"
               d="m 19.84268,-158.74141 c -65.33981,-4.10956 -65.33981,-4.10956 -69.44937,-39.68535" /><g
               id="g378"><g
                 id="g380"><g
                   id="g382"><g
                     transform="matrix(-0.80385,-0.60281,0.60281,-0.80385,-37.04279,-165.99695)"
                     id="g384"><g
                       id="g386"><g
                         transform="scale(-1,1)"
                         id="g388"><path
                           id="path390"
                           style="fill:none;stroke:#000000;stroke-width:1.59404004;stroke-linecap:round;stroke-linejoin:round;stroke-miterlimit:10;stroke-dasharray:none;stroke-opacity:1"
                           d="M -2.63017,3.50691 C -2.411,2.19182 0,0.21918 0.65753,0 0,-0.21918 -2.411,-2.19182 -2.63017,-3.50691" /></g></g></g></g></g></g></g><g
             id="g392"><path
               id="path394"
               style="fill:none;stroke:#000000;stroke-width:0.3985;stroke-linecap:butt;stroke-linejoin:miter;stroke-miterlimit:10;stroke-dasharray:none;stroke-opacity:1"
               d="M 173.62343,-148.82008 H 148.52527" /><g
               transform="rotate(180,74.262635,-74.41004)"
               id="g396"><g
                 id="g398"><path
                   id="path400"
                   style="fill:#000000;fill-opacity:1;fill-rule:nonzero;stroke:#000000;stroke-width:0.3985;stroke-linecap:butt;stroke-linejoin:miter;stroke-miterlimit:10;stroke-dasharray:none;stroke-opacity:1"
                   d="M -4.36018,2.6899 0.29886,0 -4.36018,-2.6899 Z" /></g></g><g
               id="g402"><path
                 id="path404"
                 style="fill:#000000;fill-opacity:1;fill-rule:nonzero;stroke:#000000;stroke-width:0.3985;stroke-linecap:butt;stroke-linejoin:miter;stroke-miterlimit:10;stroke-dasharray:none;stroke-opacity:1"
                 d="m 175.03247,-148.82008 c 0,0.77819 -0.63086,1.40904 -1.40904,1.40904 -0.77818,0 -1.40904,-0.63085 -1.40904,-1.40904 0,-0.77819 0.63086,-1.40905 1.40904,-1.40905 0.77818,0 1.40904,0.63086 1.40904,1.40905 z" /><g
                 transform="translate(173.621,-148.818)"
                 id="g406"><g
                   id="g408" /><g
                   transform="translate(-173.621,148.818)"
                   id="g410" /></g></g><path
               id="path412"
               style="fill:none;stroke:#000000;stroke-width:0.3985;stroke-linecap:butt;stroke-linejoin:miter;stroke-miterlimit:10;stroke-dasharray:none;stroke-opacity:1"
               d="m 104.17407,-148.82008 h 20.73812" /><g
               transform="translate(124.91219,-148.82008)"
               id="g414"><g
                 id="g416"><path
                   id="path418"
                   style="fill:none;stroke:#000000;stroke-width:0.3985;stroke-linecap:butt;stroke-linejoin:miter;stroke-miterlimit:10;stroke-dasharray:none;stroke-opacity:1"
                   d="M -1.2e-4,2.6899 4.6589,0 -1.2e-4,-2.6899 Z" /></g></g><g
               id="g420"><path
                 id="path422"
                 style="fill:#000000;fill-opacity:1;fill-rule:nonzero;stroke:#000000;stroke-width:0.3985;stroke-linecap:butt;stroke-linejoin:miter;stroke-miterlimit:10;stroke-dasharray:none;stroke-opacity:1"
                 d="m 105.58311,-148.82008 c 0,0.77819 -0.63085,1.40904 -1.40904,1.40904 -0.77818,0 -1.40904,-0.63085 -1.40904,-1.40904 0,-0.77819 0.63086,-1.40905 1.40904,-1.40905 0.77819,0 1.40904,0.63086 1.40904,1.40905 z" /><g
                 transform="translate(104.173,-148.818)"
                 id="g424"><g
                   id="g426" /><g
                   transform="translate(-104.173,148.818)"
                   id="g428" /></g></g><path
               id="path430"
               style="fill:none;stroke:#000000;stroke-width:0.3985;stroke-linecap:butt;stroke-linejoin:miter;stroke-miterlimit:10;stroke-dasharray:none;stroke-opacity:1"
               d="m 59.52803,-138.89876 c 65.33983,4.10958 65.33983,4.10958 69.44939,39.68536" /><g
               id="g432"><g
                 id="g434"><g
                   id="g436"><g
                     transform="matrix(0.80385,0.60272,-0.60272,0.80385,117.99852,-130.45439)"
                     id="g438"><g
                       id="g440"><g
                         id="g442"><path
                           id="path444"
                           style="fill:none;stroke:#000000;stroke-width:1.59404004;stroke-linecap:round;stroke-linejoin:round;stroke-miterlimit:10;stroke-dasharray:none;stroke-opacity:1"
                           d="M -2.63017,3.50691 C -2.411,2.19182 0,0.21918 0.65753,0 0,-0.21918 -2.411,-2.19182 -2.63017,-3.50691" /></g></g></g></g></g></g><path
               id="path446"
               style="fill:none;stroke:#000000;stroke-width:0.3985;stroke-linecap:butt;stroke-linejoin:miter;stroke-miterlimit:10;stroke-dasharray:none;stroke-opacity:1"
               d="m 59.52803,-158.74141 c 65.33983,-4.10956 65.33983,-4.10956 69.44939,-39.68535" /><g
               id="g448"><g
                 id="g450"><g
                   id="g452"><g
                     transform="matrix(0.80385,-0.60281,0.60281,0.80385,117.9992,-167.18607)"
                     id="g454"><g
                       id="g456"><g
                         id="g458"><path
                           id="path460"
                           style="fill:none;stroke:#000000;stroke-width:1.59404004;stroke-linecap:round;stroke-linejoin:round;stroke-miterlimit:10;stroke-dasharray:none;stroke-opacity:1"
                           d="M -2.63017,3.50691 C -2.411,2.19182 0,0.21918 0.65753,0 0,-0.21918 -2.411,-2.19182 -2.63017,-3.50691" /></g></g></g></g></g></g><path
               id="path462"
               style="fill:none;stroke:#000000;stroke-width:0.3985;stroke-linecap:butt;stroke-linejoin:miter;stroke-miterlimit:10;stroke-dasharray:none;stroke-opacity:1"
               d="m 218.26947,-138.89876 c -65.33983,4.10958 -65.33983,4.10958 -69.44939,39.68536" /><g
               id="g464"><g
                 id="g466"><g
                   id="g468"><g
                     transform="matrix(-0.80385,0.60272,-0.60272,-0.80385,159.79889,-130.45439)"
                     id="g470"><g
                       id="g472"><g
                         id="g474"><path
                           id="path476"
                           style="fill:none;stroke:#000000;stroke-width:1.59404004;stroke-linecap:round;stroke-linejoin:round;stroke-miterlimit:10;stroke-dasharray:none;stroke-opacity:1"
                           d="M -2.63017,3.50691 C -2.411,2.19182 0,0.21918 0.65753,0 0,-0.21918 -2.411,-2.19182 -2.63017,-3.50691" /></g></g></g></g></g></g><path
               id="path478"
               style="fill:none;stroke:#000000;stroke-width:0.3985;stroke-linecap:butt;stroke-linejoin:miter;stroke-miterlimit:10;stroke-dasharray:none;stroke-opacity:1"
               d="m 218.26947,-158.74141 c -65.33983,-4.10956 -65.33983,-4.10956 -69.44939,-39.68535" /><g
               id="g480"><g
                 id="g482"><g
                   id="g484"><g
                     transform="matrix(-0.80385,-0.60272,0.60272,-0.80385,159.79889,-167.18568)"
                     id="g486"><g
                       id="g488"><g
                         id="g490"><path
                           id="path492"
                           style="fill:none;stroke:#000000;stroke-width:1.59404004;stroke-linecap:round;stroke-linejoin:round;stroke-miterlimit:10;stroke-dasharray:none;stroke-opacity:1"
                           d="M -2.63017,3.50691 C -2.411,2.19182 0,0.21918 0.65753,0 0,-0.21918 -2.411,-2.19182 -2.63017,-3.50691" /></g></g></g></g></g></g></g></g></g></g></g></svg>