<?xml version="1.0" encoding="UTF-8" standalone="no"?>
<svg
   xmlns:dc="http://purl.org/dc/elements/1.1/"
   xmlns:cc="http://creativecommons.org/ns#"
   xmlns:rdf="http://www.w3.org/1999/02/22-rdf-syntax-ns#"
   xmlns:svg="http://www.w3.org/2000/svg"
   xmlns="http://www.w3.org/2000/svg"
   viewBox="0 0 149.496 77.599998"
   height="77.599998"
   width="149.496"
   xml:space="preserve"
   id="svg2"
   version="1.1"><metadata
     id="metadata8"><rdf:RDF><cc:Work
         rdf:about=""><dc:format>image/svg+xml</dc:format><dc:type
           rdf:resource="http://purl.org/dc/dcmitype/StillImage" /></cc:Work></rdf:RDF></metadata><defs
     id="defs6" /><g
     transform="matrix(1.3333333,0,0,-1.3333333,0,77.6)"
     id="g10"><g
       transform="translate(42.918,28.131)"
       id="g12"><g
         id="g14"><g
           id="g16"><g
             id="g18"><path
               id="path20"
               style="fill:#000000;fill-opacity:1;fill-rule:nonzero;stroke:#000000;stroke-width:0.79701;stroke-linecap:butt;stroke-linejoin:miter;stroke-miterlimit:10;stroke-dasharray:none;stroke-opacity:1"
               d="M 4.22711,0 C 4.22711,2.3346 2.3346,4.22711 0,4.22711 -2.3346,4.22711 -4.22711,2.3346 -4.22711,0 c 0,-2.3346 1.89251,-4.22711 4.22711,-4.22711 2.3346,0 4.22711,1.89251 4.22711,4.22711 z" /><g
               id="g22"><g
                 id="g24" /></g></g><path
             id="path26"
             style="fill:none;stroke:#000000;stroke-width:0.79701;stroke-linecap:butt;stroke-linejoin:miter;stroke-miterlimit:10;stroke-dasharray:none;stroke-opacity:1"
             d="m 4.62563,0 h 23.0138" /><g
             transform="translate(27.63943)"
             id="g28"><g
               id="g30"><path
                 id="path32"
                 style="fill:none;stroke:#000000;stroke-width:0.6376;stroke-linecap:round;stroke-linejoin:round;stroke-miterlimit:10;stroke-dasharray:none;stroke-opacity:1"
                 d="M -1.55415,2.0722 C -1.42464,1.29512 0,0.1295 0.38852,0 0,-0.1295 -1.42464,-1.29512 -1.55415,-2.0722" /></g></g><g
             id="g34"><g
               transform="translate(32.066,-3.459)"
               id="g36"><g
                 id="g38"><g
                   transform="translate(-74.984,-24.672)"
                   id="g40"><text
                     id="text44"
                     style="font-variant:normal;font-weight:normal;font-size:9.96259975px;font-family:CMR10;-inkscape-font-specification:CMR10;writing-mode:lr-tb;fill:#000000;fill-opacity:1;fill-rule:nonzero;stroke:none"
                     transform="matrix(1,0,0,-1,74.984,24.672)"><tspan
                       id="tspan42"
                       y="0"
                       x="0 5.5352206 8.3028307 12.205181 16.632561 21.05994 24.934395 29.915695">director</tspan></text>
<g
                     transform="translate(74.984,24.672)"
                     id="g46" /></g></g><g
                 transform="translate(-32.066,3.459)"
                 id="g48" /></g></g><g
             id="g50"><path
               id="path52"
               style="fill:none;stroke:#0000cc;stroke-width:0.79701;stroke-linecap:butt;stroke-linejoin:miter;stroke-miterlimit:10;stroke-dasharray:none;stroke-opacity:1"
               d="M 0,14.17339 H 41.81284" /><g
               transform="translate(41.81284,14.17339)"
               id="g54"><g
                 id="g56"><path
                   id="path58"
                   style="fill:none;stroke:#0000cc;stroke-width:0.6376;stroke-linecap:round;stroke-linejoin:round;stroke-miterlimit:10;stroke-dasharray:none;stroke-opacity:1"
                   d="M -1.55415,2.0722 C -1.42464,1.29512 0,0.1295 0.38852,0 0,-0.1295 -1.42464,-1.29512 -1.55415,-2.0722" /></g></g><g
               id="g60"><g
                 transform="translate(-6.165,19.83)"
                 id="g62"><g
                   id="g64"><g
                     transform="translate(-36.753,-47.961)"
                     id="g66"><text
                       id="text70"
                       style="font-variant:normal;font-weight:normal;font-size:9.96259975px;font-family:CMR10;-inkscape-font-specification:CMR10;writing-mode:lr-tb;fill:#0000cc;fill-opacity:1;fill-rule:nonzero;stroke:none"
                       transform="matrix(1,0,0,-1,36.753,47.961)"><tspan
                         id="tspan68"
                         y="0"
                         x="0 5.5352206 9.4375706 12.205181 17.463442 20.231052 25.766272 34.065117 37.109688 42.090988 45.99334 50.420719">drivingforce</tspan></text>
<g
                       transform="translate(36.753,47.961)"
                       id="g72" /></g></g><g
                   transform="translate(6.165,-19.83)"
                   id="g74" /></g></g></g><g
             id="g76"><path
               id="path78"
               style="fill:none;stroke:#cc0033;stroke-width:0.79701;stroke-linecap:butt;stroke-linejoin:miter;stroke-miterlimit:10;stroke-dasharray:none;stroke-opacity:1"
               d="M 0,-14.17339 H -41.81284" /><g
               transform="rotate(180,-20.90642,-7.086695)"
               id="g80"><g
                 id="g82"><path
                   id="path84"
                   style="fill:none;stroke:#cc0033;stroke-width:0.6376;stroke-linecap:round;stroke-linejoin:round;stroke-miterlimit:10;stroke-dasharray:none;stroke-opacity:1"
                   d="M -1.55415,2.0722 C -1.42464,1.29512 0,0.1295 0.38852,0 0,-0.1295 -1.42464,-1.29512 -1.55415,-2.0722" /></g></g><g
               id="g86"><g
                 transform="translate(-36.909,-24.81)"
                 id="g88"><g
                   id="g90"><g
                     transform="translate(-6.009,-3.321)"
                     id="g92"><text
                       id="text96"
                       style="font-variant:normal;font-weight:normal;font-size:9.96259975px;font-family:CMR10;-inkscape-font-specification:CMR10;writing-mode:lr-tb;fill:#cc0033;fill-opacity:1;fill-rule:nonzero;stroke:none"
                       transform="matrix(1,0,0,-1,6.009,3.321)"><tspan
                         id="tspan94"
                         y="0"
                         x="0 3.0445704 6.9469209 9.7145309 14.141911 18.016365 20.783976 25.765276">friction</tspan></text>
<g
                       transform="translate(6.009,3.321)"
                       id="g98" /></g></g><g
                   transform="translate(36.909,24.81)"
                   id="g100" /></g></g></g></g></g></g></g></svg>