<?xml version="1.0" encoding="UTF-8" standalone="no"?>
<svg
   xmlns:dc="http://purl.org/dc/elements/1.1/"
   xmlns:cc="http://creativecommons.org/ns#"
   xmlns:rdf="http://www.w3.org/1999/02/22-rdf-syntax-ns#"
   xmlns:svg="http://www.w3.org/2000/svg"
   xmlns="http://www.w3.org/2000/svg"
   viewBox="0 0 548.51599 189.332"
   height="189.332"
   width="548.51599"
   xml:space="preserve"
   id="svg2"
   version="1.1"><metadata
     id="metadata8"><rdf:RDF><cc:Work
         rdf:about=""><dc:format>image/svg+xml</dc:format><dc:type
           rdf:resource="http://purl.org/dc/dcmitype/StillImage" /></cc:Work></rdf:RDF></metadata><defs
     id="defs6" /><g
     transform="matrix(1.3333333,0,0,-1.3333333,0,189.332)"
     id="g10"><g
       transform="translate(9.589,77.004)"
       id="g12"><g
         id="g14"><g
           id="g16"><g
             id="g18"><g
               transform="translate(-6.268,54.203)"
               id="g20"><g
                 id="g22"><g
                   transform="translate(-3.321,-131.207)"
                   id="g24"><text
                     id="text28"
                     style="font-variant:normal;font-weight:normal;font-size:9.96259975px;font-family:CMSS10;-inkscape-font-specification:CMSS10;writing-mode:lr-tb;fill:#000000;fill-opacity:1;fill-rule:nonzero;stroke:none"
                     transform="matrix(1,0,0,-1,3.321,131.207)"><tspan
                       id="tspan26"
                       y="0"
                       x="0 3.8744552 8.6624804">(a)</tspan></text>
<g
                     transform="translate(3.321,131.207)"
                     id="g30" /></g></g><g
                 transform="translate(6.268,-54.203)"
                 id="g32" /></g></g><g
             id="g34"><g
               transform="translate(333.709,54.203)"
               id="g36"><g
                 id="g38"><g
                   transform="translate(-343.298,-131.207)"
                   id="g40"><text
                     id="text44"
                     style="font-variant:normal;font-weight:normal;font-size:9.96259975px;font-family:CMSS10;-inkscape-font-specification:CMSS10;writing-mode:lr-tb;fill:#000000;fill-opacity:1;fill-rule:nonzero;stroke:none"
                     transform="matrix(1,0,0,-1,343.298,131.207)"><tspan
                       id="tspan42"
                       y="0"
                       x="0 3.8744552 9.022131">(b)</tspan></text>
<g
                     transform="translate(343.298,131.207)"
                     id="g46" /></g></g><g
                 transform="translate(-333.709,-54.203)"
                 id="g48" /></g></g><g
             id="g50"><g
               id="g52"><g
                 transform="translate(0,-27.916)"
                 id="g54"><g
                   id="g56" /><g
                   transform="translate(0,27.916)"
                   id="g58" /></g></g><path
               id="path60"
               style="fill:none;stroke:#000000;stroke-width:0.3985;stroke-linecap:butt;stroke-linejoin:miter;stroke-miterlimit:10;stroke-dasharray:none;stroke-opacity:1"
               d="M 0,27.91643 C -4.05199,25.2906 -7.3367,10.66356 -7.3367,-4.75444 -7.3367,-20.17245 -4.05199,-30.54227 0,-27.91643 4.05199,-25.2906 7.3367,-10.66356 7.3367,4.75444 7.3367,20.17245 4.05199,30.54227 0,27.91643" /><g
               id="g62"><g
                 transform="translate(273.806,-40.654)"
                 id="g64"><g
                   id="g66" /><g
                   transform="translate(-273.806,40.654)"
                   id="g68" /></g></g><path
               id="path70"
               style="fill:none;stroke:#000000;stroke-width:0.3985;stroke-linecap:butt;stroke-linejoin:miter;stroke-miterlimit:10;stroke-dasharray:none;stroke-opacity:1"
               d="m 273.80951,15.17824 c -4.05199,-2.62584 -7.3367,-17.25286 -7.3367,-32.67087 0,-15.41801 3.28471,-25.78784 7.3367,-23.162 4.052,2.62583 7.3367,17.25288 7.3367,32.6709 0,15.418 -3.2847,25.78781 -7.3367,23.16197" /><path
               id="path72"
               style="fill:none;stroke:#000000;stroke-width:0.3985;stroke-linecap:butt;stroke-linejoin:miter;stroke-miterlimit:10;stroke-dasharray:none;stroke-opacity:1"
               d="M 0,27.91643 273.80951,15.17824" /><path
               id="path74"
               style="fill:none;stroke:#000000;stroke-width:0.3985;stroke-linecap:butt;stroke-linejoin:miter;stroke-miterlimit:10;stroke-dasharray:none;stroke-opacity:1"
               d="m 0,-27.91643 273.80951,-12.7382" /><g
               id="g76"><g
                 id="g78"><g
                   transform="translate(27.38,-29.189)"
                   id="g80"><g
                     id="g82" /><g
                     transform="translate(-27.38,29.189)"
                     id="g84" /></g></g></g><g
               id="g86"><path
                 id="path88"
                 style="fill:none;stroke:#808080;stroke-width:0.19925;stroke-linecap:butt;stroke-linejoin:miter;stroke-miterlimit:10;stroke-dasharray:none;stroke-opacity:1"
                 d="m 27.38095,26.64261 c -4.052,-2.62583 -7.33671,-17.25287 -7.33671,-32.67087 0,-15.41801 3.28471,-25.78783 7.33671,-23.16199 4.05199,2.62583 7.3367,17.25287 7.3367,32.67087 0,15.41802 -3.28471,25.78783 -7.3367,23.16199" /></g><g
               id="g90"><g
                 id="g92"><g
                   transform="translate(246.425,-39.38)"
                   id="g94"><g
                     id="g96" /><g
                     transform="translate(-246.425,39.38)"
                     id="g98" /></g></g></g><g
               id="g100"><path
                 id="path102"
                 style="fill:none;stroke:#808080;stroke-width:0.19925;stroke-linecap:butt;stroke-linejoin:miter;stroke-miterlimit:10;stroke-dasharray:none;stroke-opacity:1"
                 d="m 246.42856,16.45206 c -4.05199,-2.62584 -7.3367,-17.25286 -7.3367,-32.67087 0,-15.41802 3.28471,-25.78784 7.3367,-23.162 4.052,2.62584 7.3367,17.25288 7.3367,32.67089 0,15.418 -3.2847,25.78782 -7.3367,23.16198" /></g><path
               id="path104"
               style="fill:none;stroke:#000000;stroke-width:0.3985;stroke-linecap:butt;stroke-linejoin:miter;stroke-miterlimit:10;stroke-dasharray:none;stroke-opacity:1"
               d="m 12.70753,-66.6156 29.34682,19.0178 V 64.06795 L 12.70753,45.05016 Z" /><path
               id="path106"
               style="fill:none;stroke:#000000;stroke-width:0.3985;stroke-linecap:butt;stroke-linejoin:miter;stroke-miterlimit:10;stroke-dasharray:none;stroke-opacity:1"
               d="m 231.75516,-76.80615 29.34681,19.0178 V 53.8774 L 231.75516,34.8596 Z" /><g
               id="g108"><g
                 transform="translate(109.522,-46.969)"
                 id="g110"><g
                   id="g112" /><g
                   transform="translate(-109.522,46.969)"
                   id="g114" /></g></g><path
               id="path116"
               style="fill:none;stroke:#000000;stroke-width:0.3985;stroke-linecap:butt;stroke-linejoin:miter;stroke-miterlimit:10;stroke-dasharray:none;stroke-opacity:1"
               d="m 109.5238,36.77937 c -6.078,-3.93877 -11.00505,-25.8793 -11.00505,-49.00631 0,-23.12703 4.92705,-38.68174 11.00505,-34.74298 6.07799,3.93875 11.00505,25.8793 11.00505,49.00631 0,23.12703 -4.92706,38.68173 -11.00505,34.74298" /><g
               id="g118"><g
                 transform="translate(164.283,-29.975)"
                 id="g120"><g
                   id="g122" /><g
                   transform="translate(-164.283,29.975)"
                   id="g124" /></g></g><path
               id="path126"
               style="fill:none;stroke:#000000;stroke-width:0.3985;stroke-linecap:butt;stroke-linejoin:miter;stroke-miterlimit:10;stroke-dasharray:none;stroke-opacity:1"
               d="m 164.2857,14.6903 c -3.2416,-2.10067 -5.86938,-13.80235 -5.86938,-26.13677 0,-12.33444 2.62778,-20.63034 5.86938,-18.52967 3.24161,2.10068 5.86939,13.80236 5.86939,26.1368 0,12.33443 -2.62778,20.63031 -5.86939,18.52964" /><g
               id="g128"><g
                 transform="translate(109.522,-38.594)"
                 id="g130"><g
                   id="g132" /><g
                   transform="translate(-109.522,38.594)"
                   id="g134" /></g></g><path
               id="path136"
               style="fill:none;stroke:#000000;stroke-width:0.3985;stroke-linecap:butt;stroke-linejoin:miter;stroke-miterlimit:10;stroke-dasharray:none;stroke-opacity:1"
               d="m 109.5238,28.40436 c -4.86238,-3.15099 -8.80401,-20.7034 -8.80401,-39.20494 0,-18.50157 3.94163,-30.94532 8.80401,-27.79433 4.86238,3.15099 8.80402,20.70338 8.80402,39.20494 0,18.50157 -3.94164,30.94531 -8.80402,27.79433" /><g
               id="g138"><g
                 transform="translate(164.283,-21.6)"
                 id="g140"><g
                   id="g142" /><g
                   transform="translate(-164.283,21.6)"
                   id="g144" /></g></g><path
               id="path146"
               style="fill:none;stroke:#000000;stroke-width:0.3985;stroke-linecap:butt;stroke-linejoin:miter;stroke-miterlimit:10;stroke-dasharray:none;stroke-opacity:1"
               d="m 164.2857,6.31529 c -2.02598,-1.31292 -3.66834,-8.62642 -3.66834,-16.33542 0,-7.709 1.64236,-12.89392 3.66834,-11.58099 2.02599,1.31291 3.66836,8.62643 3.66836,16.33543 0,7.70899 -1.64237,12.89389 -3.66836,11.58098" /><path
               id="path148"
               style="fill:none;stroke:#000000;stroke-width:0.3985;stroke-linecap:butt;stroke-linejoin:miter;stroke-miterlimit:10;stroke-dasharray:none;stroke-opacity:1"
               d="M 109.5238,36.77937 164.2857,14.6903" /><path
               id="path150"
               style="fill:none;stroke:#000000;stroke-width:0.3985;stroke-linecap:butt;stroke-linejoin:miter;stroke-miterlimit:10;stroke-dasharray:none;stroke-opacity:1"
               d="m 109.5238,-46.96992 54.7619,16.99378" /><path
               id="path152"
               style="fill:none;stroke:#000000;stroke-width:0.3985;stroke-linecap:butt;stroke-linejoin:miter;stroke-miterlimit:10;stroke-dasharray:none;stroke-opacity:1"
               d="M 109.5238,28.40436 164.2857,6.31529" /><path
               id="path154"
               style="fill:none;stroke:#000000;stroke-width:0.3985;stroke-linecap:butt;stroke-linejoin:miter;stroke-miterlimit:10;stroke-dasharray:none;stroke-opacity:1"
               d="m 109.5238,-38.59491 54.7619,16.99379" /></g><g
             id="g156"><g
               id="g158"><path
                 id="path160"
                 style="fill:#000000;fill-opacity:1;fill-rule:nonzero;stroke:#000000;stroke-width:0.3985;stroke-linecap:butt;stroke-linejoin:miter;stroke-miterlimit:10;stroke-dasharray:none;stroke-opacity:1"
                 d="m 341.57076,0 c 0,0.77818 -0.63086,1.40903 -1.40905,1.40903 -0.7782,0 -1.40904,-0.63085 -1.40904,-1.40903 0,-0.77818 0.63084,-1.40903 1.40904,-1.40903 0.77819,0 1.40905,0.63085 1.40905,1.40903 z" /><g
                 transform="translate(340.157)"
                 id="g162"><g
                   id="g164" /><g
                   transform="translate(-340.157)"
                   id="g166" /></g></g><path
               id="path168"
               style="fill:none;stroke:#000000;stroke-width:0.3985;stroke-linecap:butt;stroke-linejoin:miter;stroke-miterlimit:10;stroke-dasharray:none;stroke-opacity:1"
               d="M 340.16171,-1.60829 V -28.3468" /><g
               id="g170"><g
                 transform="translate(328.826,-16.375)"
                 id="g172"><g
                   id="g174"><g
                     transform="translate(-338.415,-60.629)"
                     id="g176"><text
                       id="text180"
                       style="font-variant:normal;font-weight:normal;font-size:9.96259975px;font-family:CMMI10;-inkscape-font-specification:CMMI10;writing-mode:lr-tb;fill:#000000;fill-opacity:1;fill-rule:nonzero;stroke:none"
                       transform="matrix(1,0,0,-1,338.415,60.629)"><tspan
                         id="tspan178"
                         y="0"
                         x="0">r</tspan></text>
<text
                       id="text184"
                       style="font-variant:normal;font-weight:normal;font-size:6.97380018px;font-family:CMMI7;-inkscape-font-specification:CMMI7;writing-mode:lr-tb;fill:#000000;fill-opacity:1;fill-rule:nonzero;stroke:none"
                       transform="matrix(1,0,0,-1,342.909,59.135)"><tspan
                         id="tspan182"
                         y="0"
                         x="0">i</tspan></text>
<g
                       transform="translate(338.415,60.629)"
                       id="g186" /></g></g><g
                   transform="translate(-328.826,16.375)"
                   id="g188" /></g></g><path
               id="path190"
               style="fill:none;stroke:#000000;stroke-width:0.3985;stroke-linecap:butt;stroke-linejoin:miter;stroke-miterlimit:10;stroke-dasharray:none;stroke-opacity:1"
               d="M 341.55894,0.80664 389.25995,28.3468" /><g
               id="g192"><g
                 transform="translate(352.959,19.591)"
                 id="g194"><g
                   id="g196"><g
                     transform="translate(-362.548,-96.595)"
                     id="g198"><text
                       id="text202"
                       style="font-variant:normal;font-weight:normal;font-size:9.96259975px;font-family:CMMI10;-inkscape-font-specification:CMMI10;writing-mode:lr-tb;fill:#000000;fill-opacity:1;fill-rule:nonzero;stroke:none"
                       transform="matrix(1,0,0,-1,362.548,96.595)"><tspan
                         id="tspan200"
                         y="0"
                         x="0">r</tspan></text>
<text
                       id="text206"
                       style="font-variant:normal;font-weight:normal;font-size:6.97380018px;font-family:CMMI7;-inkscape-font-specification:CMMI7;writing-mode:lr-tb;fill:#000000;fill-opacity:1;fill-rule:nonzero;stroke:none"
                       transform="matrix(1,0,0,-1,367.043,95.101)"><tspan
                         id="tspan204"
                         y="0"
                         x="0">o</tspan></text>
<g
                       transform="translate(362.548,96.595)"
                       id="g208" /></g></g><g
                   transform="translate(-352.959,-19.591)"
                   id="g210" /></g></g><g
               id="g212" /><path
               id="path214"
               style="fill:none;stroke:#000000;stroke-width:0.3985;stroke-linecap:butt;stroke-linejoin:miter;stroke-miterlimit:10;stroke-dasharray:none;stroke-opacity:1"
               d="m 385.94649,34.08592 6.62694,-11.47824" /><g
               transform="matrix(-0.5016,0.86877,-0.86877,-0.5016,385.94649,34.08592)"
               id="g216"><g
                 id="g218"><path
                   id="path220"
                   style="fill:none;stroke:#000000;stroke-width:0.31878999;stroke-linecap:round;stroke-linejoin:round;stroke-miterlimit:10;stroke-dasharray:none;stroke-opacity:1"
                   d="M -1.19551,1.59401 C -1.09587,0.99626 0,0.09961 0.29886,0 0,-0.09961 -1.09587,-0.99626 -1.19551,-1.59401" /></g></g><g
               transform="matrix(0.5016,-0.86877,0.86877,0.5016,392.57343,22.60768)"
               id="g222"><g
                 id="g224"><path
                   id="path226"
                   style="fill:none;stroke:#000000;stroke-width:0.31878999;stroke-linecap:round;stroke-linejoin:round;stroke-miterlimit:10;stroke-dasharray:none;stroke-opacity:1"
                   d="M -1.19551,1.59401 C -1.09587,0.99626 0,0.09961 0.29886,0 0,-0.09961 -1.09587,-0.99626 -1.19551,-1.59401" /></g></g><g
               id="g228"><g
                 transform="translate(392.774,26.202)"
                 id="g230"><g
                   id="g232"><g
                     transform="translate(-402.363,-103.206)"
                     id="g234"><text
                       id="text238"
                       style="font-variant:normal;font-weight:normal;font-size:9.96259975px;font-family:CMMI10;-inkscape-font-specification:CMMI10;writing-mode:lr-tb;fill:#000000;fill-opacity:1;fill-rule:nonzero;stroke:none"
                       transform="matrix(1,0,0,-1,402.363,103.206)"><tspan
                         id="tspan236"
                         y="0"
                         x="0">u</tspan></text>
<g
                       transform="translate(402.363,103.206)"
                       id="g240" /></g></g><g
                   transform="translate(-392.774,-26.202)"
                   id="g242" /></g></g><g
               id="g244"><path
                 id="path246"
                 style="fill:none;stroke:#808080;stroke-width:0.19925;stroke-linecap:butt;stroke-linejoin:miter;stroke-miterlimit:10;stroke-dasharray:none;stroke-opacity:1"
                 d="m 341.77,0 h 47.48995" /></g><path
               id="path248"
               style="fill:none;stroke:#000000;stroke-width:0.3985;stroke-linecap:butt;stroke-linejoin:miter;stroke-miterlimit:10;stroke-dasharray:none;stroke-opacity:1"
               d="m 368.50851,0 c 0,4.97461 -1.31061,9.86531 -3.56784,13.77525" /><g
               transform="matrix(-0.50157,0.86877,-0.86877,-0.50157,364.94067,13.77525)"
               id="g250"><g
                 id="g252"><path
                   id="path254"
                   style="fill:none;stroke:#000000;stroke-width:0.31878999;stroke-linecap:round;stroke-linejoin:round;stroke-miterlimit:10;stroke-dasharray:none;stroke-opacity:1"
                   d="M -1.19551,1.59401 C -1.09587,0.99626 0,0.09961 0.29886,0 0,-0.09961 -1.09587,-0.99626 -1.19551,-1.59401" /></g></g><g
               id="g256"><g
                 transform="translate(356.118,2.991)"
                 id="g258"><g
                   id="g260"><g
                     transform="translate(-365.707,-79.995)"
                     id="g262"><text
                       id="text266"
                       style="font-variant:normal;font-weight:normal;font-size:9.96259975px;font-family:CMMI10;-inkscape-font-specification:CMMI10;writing-mode:lr-tb;fill:#000000;fill-opacity:1;fill-rule:nonzero;stroke:none"
                       transform="matrix(1,0,0,-1,365.707,79.995)"><tspan
                         id="tspan264"
                         y="0"
                         x="0">α</tspan></text>
<g
                       transform="translate(365.707,79.995)"
                       id="g268" /></g></g><g
                   transform="translate(-356.118,-2.991)"
                   id="g270" /></g></g></g></g></g></g></g></svg>