<?xml version="1.0" encoding="UTF-8" standalone="no"?>
<svg
   xmlns:dc="http://purl.org/dc/elements/1.1/"
   xmlns:cc="http://creativecommons.org/ns#"
   xmlns:rdf="http://www.w3.org/1999/02/22-rdf-syntax-ns#"
   xmlns:svg="http://www.w3.org/2000/svg"
   xmlns="http://www.w3.org/2000/svg"
   viewBox="0 0 320 282.66666"
   height="282.66666"
   width="320"
   xml:space="preserve"
   id="svg2"
   version="1.1"><metadata
     id="metadata8"><rdf:RDF><cc:Work
         rdf:about=""><dc:format>image/svg+xml</dc:format><dc:type
           rdf:resource="http://purl.org/dc/dcmitype/StillImage" /></cc:Work></rdf:RDF></metadata><defs
     id="defs6" /><g
     transform="matrix(1.3333333,0,0,-1.3333333,0,282.66667)"
     id="g10"><g
       transform="scale(0.1)"
       id="g12"><path
         id="path14"
         style="fill:none;stroke:#000000;stroke-width:10;stroke-linecap:butt;stroke-linejoin:miter;stroke-miterlimit:3.79999995;stroke-dasharray:none;stroke-opacity:1"
         d="m 430,320 h 63 m 1735,0 h -63" /><g
         transform="scale(10)"
         id="g16"><text
           id="text20"
           style="font-variant:normal;font-weight:normal;font-size:10px;font-family:Helvetica;-inkscape-font-specification:Helvetica;writing-mode:lr-tb;fill:#000000;fill-opacity:1;fill-rule:nonzero;stroke:none"
           transform="matrix(1,0,0,-1,25.6004,28.6699)"><tspan
             id="tspan18"
             y="0"
             x="0 5.8400002">−5</tspan></text>
</g><path
         id="path22"
         style="fill:none;stroke:#000000;stroke-width:10;stroke-linecap:butt;stroke-linejoin:miter;stroke-miterlimit:3.79999995;stroke-dasharray:none;stroke-opacity:1"
         d="m 430,741 h 63 m 1735,0 h -63" /><g
         transform="scale(10)"
         id="g24"><text
           id="text28"
           style="font-variant:normal;font-weight:normal;font-size:10px;font-family:Helvetica;-inkscape-font-specification:Helvetica;writing-mode:lr-tb;fill:#000000;fill-opacity:1;fill-rule:nonzero;stroke:none"
           transform="matrix(1,0,0,-1,31.4405,70.7699)"><tspan
             id="tspan26"
             y="0"
             x="0">0</tspan></text>
</g><path
         id="path30"
         style="fill:none;stroke:#000000;stroke-width:10;stroke-linecap:butt;stroke-linejoin:miter;stroke-miterlimit:3.79999995;stroke-dasharray:none;stroke-opacity:1"
         d="m 430,1163 h 63 m 1735,0 h -63" /><g
         transform="scale(10)"
         id="g32"><text
           id="text36"
           style="font-variant:normal;font-weight:normal;font-size:10px;font-family:Helvetica;-inkscape-font-specification:Helvetica;writing-mode:lr-tb;fill:#000000;fill-opacity:1;fill-rule:nonzero;stroke:none"
           transform="matrix(1,0,0,-1,31.4405,112.97)"><tspan
             id="tspan34"
             y="0"
             x="0">5</tspan></text>
</g><path
         id="path38"
         style="fill:none;stroke:#000000;stroke-width:10;stroke-linecap:butt;stroke-linejoin:miter;stroke-miterlimit:3.79999995;stroke-dasharray:none;stroke-opacity:1"
         d="m 430,1584 h 63 m 1735,0 h -63" /><g
         transform="scale(10)"
         id="g40"><text
           id="text44"
           style="font-variant:normal;font-weight:normal;font-size:10px;font-family:Helvetica;-inkscape-font-specification:Helvetica;writing-mode:lr-tb;fill:#000000;fill-opacity:1;fill-rule:nonzero;stroke:none"
           transform="matrix(1,0,0,-1,25.8808,155.07)"><tspan
             id="tspan42"
             y="0"
             x="0 5.5599999">10</tspan></text>
</g><path
         id="path46"
         style="fill:none;stroke:#000000;stroke-width:10;stroke-linecap:butt;stroke-linejoin:miter;stroke-miterlimit:3.79999995;stroke-dasharray:none;stroke-opacity:1"
         d="m 430,2005 h 63 m 1735,0 h -63" /><g
         transform="scale(10)"
         id="g48"><text
           id="text52"
           style="font-variant:normal;font-weight:normal;font-size:10px;font-family:Helvetica;-inkscape-font-specification:Helvetica;writing-mode:lr-tb;fill:#000000;fill-opacity:1;fill-rule:nonzero;stroke:none"
           transform="matrix(1,0,0,-1,25.8808,197.17)"><tspan
             id="tspan50"
             y="0"
             x="0 5.5599999">15</tspan></text>
</g><path
         id="path54"
         style="fill:none;stroke:#000000;stroke-width:10;stroke-linecap:butt;stroke-linejoin:miter;stroke-miterlimit:3.79999995;stroke-dasharray:none;stroke-opacity:1"
         d="m 430,320 v 63 m 0,1622 v -63" /><g
         transform="scale(10)"
         id="g56"><text
           id="text60"
           style="font-variant:normal;font-weight:normal;font-size:10px;font-family:Helvetica;-inkscape-font-specification:Helvetica;writing-mode:lr-tb;fill:#000000;fill-opacity:1;fill-rule:nonzero;stroke:none"
           transform="matrix(1,0,0,-1,41.6105,18.6699)"><tspan
             id="tspan58"
             y="0"
             x="0">0</tspan></text>
</g><path
         id="path62"
         style="fill:none;stroke:#000000;stroke-width:10;stroke-linecap:butt;stroke-linejoin:miter;stroke-miterlimit:3.79999995;stroke-dasharray:none;stroke-opacity:1"
         d="m 790,320 v 63 m 0,1622 v -63" /><g
         transform="scale(10)"
         id="g64"><text
           id="text68"
           style="font-variant:normal;font-weight:normal;font-size:10px;font-family:Helvetica;-inkscape-font-specification:Helvetica;writing-mode:lr-tb;fill:#000000;fill-opacity:1;fill-rule:nonzero;stroke:none"
           transform="matrix(1,0,0,-1,72.0507,18.6699)"><tspan
             id="tspan66"
             y="0"
             x="0 5.5599999 11.12">500</tspan></text>
</g><path
         id="path70"
         style="fill:none;stroke:#000000;stroke-width:10;stroke-linecap:butt;stroke-linejoin:miter;stroke-miterlimit:3.79999995;stroke-dasharray:none;stroke-opacity:1"
         d="m 1149,320 v 63 m 0,1622 v -63" /><g
         transform="scale(10)"
         id="g72"><text
           id="text76"
           style="font-variant:normal;font-weight:normal;font-size:10px;font-family:Helvetica;-inkscape-font-specification:Helvetica;writing-mode:lr-tb;fill:#000000;fill-opacity:1;fill-rule:nonzero;stroke:none"
           transform="matrix(1,0,0,-1,105.171,18.6699)"><tspan
             id="tspan74"
             y="0"
             x="0 5.5599999 11.12 16.68">1000</tspan></text>
</g><path
         id="path78"
         style="fill:none;stroke:#000000;stroke-width:10;stroke-linecap:butt;stroke-linejoin:miter;stroke-miterlimit:3.79999995;stroke-dasharray:none;stroke-opacity:1"
         d="m 1509,320 v 63 m 0,1622 v -63" /><g
         transform="scale(10)"
         id="g80"><text
           id="text84"
           style="font-variant:normal;font-weight:normal;font-size:10px;font-family:Helvetica;-inkscape-font-specification:Helvetica;writing-mode:lr-tb;fill:#000000;fill-opacity:1;fill-rule:nonzero;stroke:none"
           transform="matrix(1,0,0,-1,141.171,18.6699)"><tspan
             id="tspan82"
             y="0"
             x="0 5.5599999 11.12 16.68">1500</tspan></text>
</g><path
         id="path86"
         style="fill:none;stroke:#000000;stroke-width:10;stroke-linecap:butt;stroke-linejoin:miter;stroke-miterlimit:3.79999995;stroke-dasharray:none;stroke-opacity:1"
         d="m 1868,320 v 63 m 0,1622 v -63" /><g
         transform="scale(10)"
         id="g88"><text
           id="text92"
           style="font-variant:normal;font-weight:normal;font-size:10px;font-family:Helvetica;-inkscape-font-specification:Helvetica;writing-mode:lr-tb;fill:#000000;fill-opacity:1;fill-rule:nonzero;stroke:none"
           transform="matrix(1,0,0,-1,177.071,18.6699)"><tspan
             id="tspan90"
             y="0"
             x="0 5.5599999 11.12 16.68">2000</tspan></text>
</g><path
         id="path94"
         style="fill:none;stroke:#000000;stroke-width:10;stroke-linecap:butt;stroke-linejoin:miter;stroke-miterlimit:3.79999995;stroke-dasharray:none;stroke-opacity:1"
         d="m 2228,320 v 63 m 0,1622 v -63" /><g
         transform="scale(10)"
         id="g96"><text
           id="text100"
           style="font-variant:normal;font-weight:normal;font-size:10px;font-family:Helvetica;-inkscape-font-specification:Helvetica;writing-mode:lr-tb;fill:#000000;fill-opacity:1;fill-rule:nonzero;stroke:none"
           transform="matrix(1,0,0,-1,213.071,18.6699)"><tspan
             id="tspan98"
             y="0"
             x="0 5.5599999 11.12 16.68">2500</tspan></text>
</g><path
         id="path102"
         style="fill:none;stroke:#000000;stroke-width:10;stroke-linecap:butt;stroke-linejoin:miter;stroke-miterlimit:3.79999995;stroke-dasharray:none;stroke-opacity:1"
         d="M 430,320 H 2228 V 2005 H 430 Z" /><g
         transform="scale(10)"
         id="g104"><text
           id="text108"
           style="font-variant:normal;font-weight:normal;font-size:10px;font-family:Helvetica;-inkscape-font-specification:Helvetica;writing-mode:lr-tb;fill:#000000;fill-opacity:1;fill-rule:nonzero;stroke:none"
           transform="matrix(0,1,1,0,11.3301,105.09)"><tspan
             id="tspan106"
             y="0"
             x="0 7.2199998 15.55">CMS</tspan></text>
<text
           id="text114"
           style="font-variant:normal;font-weight:normal;font-size:10px;font-family:Helvetica;-inkscape-font-specification:Helvetica;writing-mode:lr-tb;fill:#000000;fill-opacity:1;fill-rule:nonzero;stroke:none"
           transform="matrix(1,0,0,-1,131.51,3.66992)"><tspan
             id="tspan110"
             y="0"
             x="0">t</tspan><tspan
             id="tspan112"
             y="-182.2"
             x="-74.409401 -68.849403 -63.289398 -58.289398 -53.289398 -51.069401 -46.069401">passive</tspan></text>
</g><path
         id="path116"
         style="fill:none;stroke:#0000ff;stroke-width:20;stroke-linecap:butt;stroke-linejoin:miter;stroke-miterlimit:3.79999995;stroke-dasharray:none;stroke-opacity:1"
         d="m 970,1892 h 303 M 448,648 l 4,14 3,9 4,11 3,14 4,7 4,8 3,2 4,-3 3,4 4,-12 4,-3 3,-4 4,-8 3,-13 4,1 4,14 3,-2 4,-17 3,4 4,-3 3,6 4,1 4,3 3,17 4,-21 3,-12 4,9 4,-2 3,5 4,-18 3,6 4,-12 4,9 3,5 4,7 3,-15 4,-9 4,3 3,-10 4,-19 3,4 4,-4 4,9 3,-4 4,3 3,-3 4,-9 4,-1 3,-7 4,3 3,3 4,13 4,-3 3,3 4,-17 3,-3 4,21 4,-15 3,12 4,21 3,7 4,28 4,1 3,-12 4,13 3,1 4,-1 4,-12 3,17 4,-3 3,-3 4,6 3,-7 4,13 4,-6 3,11 4,8 3,2 4,-3 4,5 3,-8 4,6 3,-13 4,-9 4,4 3,18 4,22 3,1 4,8 4,22 3,9 4,-1 3,6 4,2 4,11 3,-5 4,-8 3,-30 4,-1 4,1 3,3 4,1" /><path
         id="path118"
         style="fill:none;stroke:#0000ff;stroke-width:20;stroke-linecap:butt;stroke-linejoin:miter;stroke-miterlimit:3.79999995;stroke-dasharray:none;stroke-opacity:1"
         d="m 815,754 3,-12 4,-8 4,6 3,-9 4,-12 3,14 4,-8 4,10 3,5 4,-9 3,3 4,12 4,-3 3,13 4,11 3,10 4,-13 4,-27 3,4 4,-11 3,-15 4,-16 3,-10 4,-13 4,12 3,22 4,12 3,2 h 4 l 4,29 3,1 4,8 3,-8 4,6 4,1 3,-6 4,-10 3,5 4,2 4,13 3,-16 4,-13 3,6 h 4 l 4,14 3,11 4,17 h 3 l 4,-8 4,-2 3,1 4,-8 3,-13 4,6 4,-4 3,-2 4,9 3,-1 4,-6 4,-4 3,-8 4,6 3,2 4,13 4,-17 3,-5 4,-3 3,4 4,-6 3,-8 4,5 4,2 3,-12 4,-6 3,-23 4,7 4,5 h 3 l 4,-4 3,-8 4,-11 h 4 l 3,-2 4,-4 3,-6 h 4 l 4,-1 3,-3 4,2 3,32 4,2 4,15 3,16 4,-7 3,-16 4,26 4,4 3,5 4,-4 3,-20 4,3 4,5 3,-8 4,-8" /><path
         id="path120"
         style="fill:none;stroke:#0000ff;stroke-width:20;stroke-linecap:butt;stroke-linejoin:miter;stroke-miterlimit:3.79999995;stroke-dasharray:none;stroke-opacity:1"
         d="m 1189,716 3,3 4,-5 4,4 3,16 4,-7 3,6 4,6 4,26 3,-11 4,-2 3,-6 4,-4 4,14 3,10 4,-1 3,-20 4,-3 3,-13 4,4 4,16 3,-14 4,11 3,5 4,2 4,11 3,9 4,-9 3,2 4,4 4,2 3,-4 4,-26 3,1 4,17 4,3 3,-15 4,-10 3,-5 4,-5 4,-2 3,-14 4,-2 3,17 4,-1 4,-1 3,15 4,-8 3,-1 4,-10 4,3 3,-2 4,8 3,-13 4,8 4,-15 3,9 4,-7 3,-3 4,-12 4,21 3,-7 4,-8 3,3 4,-1 3,-3 4,-5 4,-2 3,6 4,7 3,-5 4,17 4,1 3,-6 4,12 3,-1 h 4 l 4,11 3,-25 4,-23 3,11 4,-4 4,17 3,2 4,-11 3,-19 4,-13 4,-21 3,14 4,-3 3,-3 4,-1 4,-8 3,13 4,-1 3,-11 4,-5 4,6 3,-7 4,-9 3,-17 4,-15 4,14 3,-11 4,-7" /><path
         id="path122"
         style="fill:none;stroke:#0000ff;stroke-width:20;stroke-linecap:butt;stroke-linejoin:miter;stroke-miterlimit:3.79999995;stroke-dasharray:none;stroke-opacity:1"
         d="m 1563,600 3,-4 4,16 4,26 3,1 4,-8 3,-8 4,-6 4,3 3,-2 4,2 3,2 4,2 3,7 4,3 4,1 3,4 4,-10 3,17 4,1 4,10 3,-7 4,-2 3,13 4,7 4,4 3,-5 4,-12 3,13 4,6 4,-10 3,-22 4,-23 3,-11 4,7 4,9 3,-5 4,8 3,8 h 4 l 4,4 3,-17 4,-14 3,-5 4,21 4,16 3,16 4,-21 3,-14 4,-1 h 4 l 3,2 4,28 3,-7 4,-10 4,10 3,-15 4,3 3,5 4,8 4,1 3,2 4,7 3,1 4,-16 3,11 4,14 4,6 3,11 4,-6 3,-6 4,4 4,-4 3,-3 4,-11 3,-18 4,6 4,-1 3,-1 4,8 3,-9 4,-21 4,4 3,-3 4,11 3,4 4,-17 4,5 3,-6 4,-2 3,-8 4,10 4,4 3,-1 4,-5 3,11 4,-14 4,-3 3,6 4,-21 3,5 4,14 4,18 3,-18 4,8" /><path
         id="path124"
         style="fill:none;stroke:#0000ff;stroke-width:20;stroke-linecap:butt;stroke-linejoin:miter;stroke-miterlimit:3.79999995;stroke-dasharray:none;stroke-opacity:1"
         d="m 1937,621 3,6 4,-5 4,-1 3,11 4,-6 3,-3 4,1 3,1 4,19 4,-12 3,16 4,-7 3,17 4,-4 4,-3 3,3 4,4 3,-15 4,4 4,-4 3,-5 4,1 3,-9 4,-8 4,2 3,5 4,17 3,-4 4,-12 4,5 3,15 4,-4 3,-6 4,15 4,-7 3,-14 4,-12 3,7 4,-7 4,10 3,6 4,-7 3,9 4,3 4,23 3,-5 4,21 3,-14 4,9 4,17 3,1 4,-2 3,6 4,1 4,4 3,-21 4,-8 3,8 4,8 3,-11 4,14 h 4 l 3,11 4,-13 3,5 4,-26 4,5 3,3 4,-6 3,5 4,15 4,-9 3,16 4,5 3,1 4,7 4,-3 3,-9 4,-1 3,-5 4,-2" /><g
         transform="scale(10)"
         id="g126"><text
           id="text130"
           style="font-variant:normal;font-weight:normal;font-size:10px;font-family:Helvetica;-inkscape-font-specification:Helvetica;writing-mode:lr-tb;fill:#000000;fill-opacity:1;fill-rule:nonzero;stroke:none"
           transform="matrix(1,0,0,-1,64.8809,175.87)"><tspan
             id="tspan128"
             y="0"
             x="0 5.5599999 10.56 13.34 15.56 20.559999">active</tspan></text>
</g><path
         id="path132"
         style="fill:none;stroke:#ff0000;stroke-width:20;stroke-linecap:butt;stroke-linejoin:miter;stroke-miterlimit:3.79999995;stroke-dasharray:none;stroke-opacity:1"
         d="m 970,1792 h 303 M 448,780 l 4,11 3,8 4,37 3,57 4,22 h 4 l 3,16 4,-66 3,35 4,30 4,27 3,10 4,-12 3,-50 4,9 4,20 3,41 4,-47 3,-48 4,-1 3,6 4,-49 4,-5 3,28 4,12 3,-46 4,-7 4,27 3,23 4,11 3,18 4,-12 4,47 3,46 4,40 3,-40 4,32 4,-23 3,24 4,9 3,-8 4,-42 4,49 3,42 4,19 3,-25 4,1 4,8 3,9 4,47 3,-27 4,-24 4,5 3,35 4,20 3,-4 4,-3 4,-7 3,40 4,51 3,30 4,25 4,-46 3,-41 4,42 3,19 4,-22 4,-30 3,16 4,-7 3,-30 4,-3 3,7 4,25 4,15 3,-21 4,43 3,-7 4,-26 4,-14 3,4 4,25 3,53 4,6 4,-15 3,64 4,39 3,-35 4,-21 4,7 3,-25 4,43 3,21 4,-22 4,-48 3,-43 4,-15 3,-14 4,18 4,-21 3,9 4,27" /><path
         id="path134"
         style="fill:none;stroke:#ff0000;stroke-width:20;stroke-linecap:butt;stroke-linejoin:miter;stroke-miterlimit:3.79999995;stroke-dasharray:none;stroke-opacity:1"
         d="m 815,1238 3,44 4,-23 4,3 3,21 4,1 3,-2 4,15 4,-20 3,-7 4,-22 3,74 4,-32 4,53 3,2 4,21 3,-14 4,-11 4,-19 3,-17 4,16 3,-20 4,-4 3,-11 4,12 4,9 3,23 4,-13 3,-8 4,28 4,-3 3,-24 4,-33 3,-8 4,21 4,27 3,29 4,-21 3,9 h 4 l 4,2 3,59 4,17 3,50 4,13 4,-4 3,-29 4,-45 3,5 4,10 4,-3 3,-29 4,-8 3,26 4,32 4,45 3,32 4,-3 3,-73 4,-30 4,4 3,-30 4,-3 3,25 4,33 4,4 3,-32 4,-54 3,-10 4,-4 3,-9 4,-21 4,-53 3,-15 4,68 3,-13 4,-32 4,36 3,-15 4,-10 3,31 4,17 4,-19 3,23 4,25 3,3 4,16 4,-2 3,8 4,-11 3,31 4,-11 4,-1 3,-36 4,-6 3,34 4,3 4,5 3,20 4,26 3,10 4,26 4,3 3,-11 4,5" /><path
         id="path136"
         style="fill:none;stroke:#ff0000;stroke-width:20;stroke-linecap:butt;stroke-linejoin:miter;stroke-miterlimit:3.79999995;stroke-dasharray:none;stroke-opacity:1"
         d="m 1189,1459 3,19 4,-6 4,6 3,45 4,-21 3,24 4,6 4,33 3,-30 4,5 3,-51 4,-22 4,-17 3,29 4,26 3,13 4,-1 3,-36 4,-28 4,39 3,-48 4,-18 3,-18 4,-9 4,-5 3,13 4,1 3,23 4,34 4,2 3,25 4,-47 3,-5 4,2 4,25 3,-24 4,-15 3,11 4,-16 4,15 3,-24 4,-13 3,1 4,17 4,-3 3,4 4,12 3,17 4,-33 4,-3 3,-30 4,-36 3,6 4,12 4,2 3,-12 4,-46 3,27 4,21 4,-3 3,34 4,6 3,-25 4,13 3,62 4,1 4,-41 3,16 4,-56 3,-64 4,7 4,33 3,24 4,17 3,-18 4,-33 4,30 3,-75 4,-3 3,49 4,71 4,61 3,-2 4,7 3,2 4,-42 4,-57 3,-4 4,-15 3,1 4,-15 4,5 3,-23 h 4 l 3,5 4,-73 4,36 3,-14 4,-41 3,17 4,-37 4,14 3,21 4,5" /><path
         id="path138"
         style="fill:none;stroke:#ff0000;stroke-width:20;stroke-linecap:butt;stroke-linejoin:miter;stroke-miterlimit:3.79999995;stroke-dasharray:none;stroke-opacity:1"
         d="m 1563,1253 3,42 4,-29 4,2 3,50 4,2 3,-10 4,11 4,14 3,19 4,19 3,11 4,-24 3,35 4,-22 4,8 3,-57 4,11 3,32 4,-6 4,-28 3,-1 4,-9 3,4 4,34 4,58 3,9 4,6 3,12 4,-46 4,-59 3,-31 4,-36 3,15 4,-30 4,44 3,-12 4,11 3,-47 4,28 4,35 3,-3 4,-19 3,8 4,42 4,6 3,8 4,-18 3,-59 4,21 4,-31 3,-7 4,26 3,10 4,40 4,-3 h 3 l 4,18 3,20 4,-11 4,3 3,-20 4,-19 3,14 4,-3 3,3 4,15 4,22 3,5 4,15 3,21 4,-23 4,-49 3,-75 4,-53 3,-58 4,-8 4,11 3,-18 4,24 3,29 4,-47 4,32 3,-6 4,75 3,-48 4,35 4,28 3,84 4,-17 3,-18 4,-1 4,-7 3,7 4,-22 3,-3 4,9 4,-38 3,20 4,-10 3,28 4,-68 4,9 3,20 4,29" /><path
         id="path140"
         style="fill:none;stroke:#ff0000;stroke-width:20;stroke-linecap:butt;stroke-linejoin:miter;stroke-miterlimit:3.79999995;stroke-dasharray:none;stroke-opacity:1"
         d="m 1937,1293 3,20 4,41 4,5 3,-7 4,36 3,-29 4,-7 3,40 4,18 4,2 3,36 4,-14 3,6 4,-15 4,22 3,7 4,-31 3,-55 4,2 4,29 3,-28 4,45 3,26 4,-16 4,26 3,-1 4,33 3,5 4,2 4,-19 3,-15 4,9 3,17 4,49 4,-57 3,-22 4,-5 3,13 4,-17 4,18 3,33 4,-19 3,-13 4,-19 4,47 3,2 4,-7 3,-31 4,33 4,30 3,69 4,-27 3,-63 4,8 4,-30 3,-66 4,15 3,37 4,28 3,-50 4,14 4,52 3,27 4,3 3,7 4,-24 4,11 3,-14 4,-41 3,-22 4,44 4,-8 3,11 4,-24 3,-27 4,1 4,3 3,-28 4,-47 3,-9 4,25" /><path
         id="path142"
         style="fill:none;stroke:#000000;stroke-width:10;stroke-linecap:butt;stroke-linejoin:miter;stroke-miterlimit:3.79999995;stroke-dasharray:none;stroke-opacity:1"
         d="M 430,741 H 2228" /><path
         id="path144"
         style="fill:none;stroke:#000000;stroke-width:10;stroke-linecap:butt;stroke-linejoin:miter;stroke-miterlimit:3.79999995;stroke-dasharray:none;stroke-opacity:1"
         d="M 430,320 H 2228 V 2005 H 430 Z" /></g></g></svg>